<svg id="Capa_1" enable-background="new 0 0 512 512" height="512" viewBox="0 0 512 512" width="512" xmlns="http://www.w3.org/2000/svg"><circle cx="61.581" cy="274.459" fill="#ff656f" r="23.191"/><circle cx="158.869" cy="225.733" fill="#ffa85d" r="23.191"/><circle cx="256.158" cy="128.279" fill="#fee55a" r="23.191"/><circle cx="353.446" cy="177.006" fill="#43cb8e" r="23.191"/><circle cx="450.734" cy="30.825" fill="#23a8fe" r="23.191"/><path d="m63.723 274.459c0-8.133 4.189-15.283 10.524-19.423-3.642-2.38-7.991-3.768-12.667-3.768-12.808 0-23.191 10.383-23.191 23.191s10.383 23.191 23.191 23.191c4.676 0 9.024-1.388 12.667-3.768-6.334-4.14-10.524-11.29-10.524-19.423z" fill="#ff4756"/><path d="m161.011 225.733c0-8.133 4.19-15.283 10.525-19.423-3.642-2.38-7.991-3.768-12.667-3.768-12.808 0-23.191 10.383-23.191 23.191s10.383 23.191 23.191 23.191c4.676 0 9.025-1.388 12.667-3.768-6.335-4.141-10.525-11.291-10.525-19.423z" fill="#ff9839"/><path d="m258.3 128.279c0-8.133 4.189-15.283 10.525-19.423-3.642-2.38-7.991-3.768-12.667-3.768-12.808 0-23.191 10.383-23.191 23.191s10.383 23.191 23.191 23.191c4.676 0 9.025-1.388 12.667-3.768-6.336-4.14-10.525-11.291-10.525-19.423z" fill="#ffd301"/><path d="m355.588 177.006c0-8.133 4.189-15.283 10.525-19.423-3.642-2.38-7.991-3.768-12.667-3.768-12.808 0-23.191 10.383-23.191 23.191s10.383 23.191 23.191 23.191c4.676 0 9.025-1.388 12.667-3.768-6.336-4.14-10.525-11.291-10.525-19.423z" fill="#00ba66"/><path d="m452.876 30.825c0-8.133 4.189-15.283 10.525-19.423-3.642-2.38-7.991-3.768-12.667-3.768-12.808 0-23.191 10.383-23.191 23.191s10.383 23.191 23.191 23.191c4.676 0 9.025-1.388 12.667-3.768-6.335-4.14-10.525-11.29-10.525-19.423z" fill="#0193fa"/><path d="m86.663 360.301h-50.164c-3.464 0-6.272 2.808-6.272 6.272v138.06h62.708v-138.06c0-3.463-2.808-6.272-6.272-6.272z" fill="#ff656f"/><path d="m183.951 311.575h-50.164c-3.464 0-6.272 2.808-6.272 6.272v186.787h62.708v-186.787c.001-3.464-2.808-6.272-6.272-6.272z" fill="#ffa85d"/><path d="m281.24 213.696h-50.164c-3.464 0-6.272 2.808-6.272 6.272v284.666h62.708v-284.666c0-3.464-2.808-6.272-6.272-6.272z" fill="#fee55a"/><path d="m378.528 262.848h-50.164c-3.464 0-6.272 2.808-6.272 6.272v235.514h62.708v-235.514c0-3.464-2.808-6.272-6.272-6.272z" fill="#43cb8e"/><path d="m475.816 115.982h-50.164c-3.464 0-6.272 2.808-6.272 6.272v382.379h62.708v-382.379c.001-3.463-2.807-6.272-6.272-6.272z" fill="#23a8fe"/><path d="m75.038 360.301h-38.539c-3.464 0-6.272 2.808-6.272 6.272v138.06h38.539v-138.06c0-3.463 2.808-6.272 6.272-6.272z" fill="#ff4756"/><path d="m172.326 311.574h-38.539c-3.464 0-6.272 2.808-6.272 6.272v186.787h38.539v-186.786c0-3.464 2.808-6.273 6.272-6.273z" fill="#ff9839"/><path d="m269.614 213.696h-38.539c-3.464 0-6.272 2.808-6.272 6.272v284.666h38.539v-284.666c0-3.464 2.808-6.272 6.272-6.272z" fill="#ffd301"/><path d="m366.902 262.848h-38.539c-3.464 0-6.272 2.808-6.272 6.272v235.514h38.539v-235.514c.001-3.464 2.809-6.272 6.272-6.272z" fill="#00ba66"/><path d="m464.191 115.982h-38.539c-3.464 0-6.272 2.808-6.272 6.272v382.379h38.539v-382.379c0-3.463 2.808-6.272 6.272-6.272z" fill="#0193fa"/><path d="m30.732 274.326c0 16.923 13.769 30.691 30.691 30.691s30.691-13.769 30.691-30.691c0-2.273-.256-4.487-.727-6.62l44.094-22.084c5.633 6.526 13.954 10.668 23.23 10.668 23.809 0 38.562-26.079 26.326-46.447l55.252-55.345c12.669 7.581 29.091 5.082 38.941-6.33l44.094 22.085c-4.251 19.257 10.5 37.311 29.965 37.311 26.541 0 40.579-31.629 22.724-51.299l64.321-96.646c19.996 7.102 40.935-7.853 40.935-28.927-.001-16.923-13.769-30.692-30.692-30.692s-30.691 13.769-30.691 30.691c0 7.924 3.019 15.157 7.968 20.608l-64.321 96.646c-11.787-4.187-25.082-.819-33.474 8.904l-44.094-22.085c.471-2.133.727-4.346.727-6.619 0-16.923-13.769-30.691-30.691-30.691-23.8 0-38.566 26.072-26.326 46.447l-55.251 55.345c-22.874-13.689-51.494 6.622-45.675 32.972l-44.094 22.084c-18.492-21.42-53.923-8.387-53.923 20.024zm419.845-259.326c8.652 0 15.691 7.039 15.691 15.691s-7.039 15.691-15.691 15.691-15.691-7.039-15.691-15.691 7.038-15.691 15.691-15.691zm-97.288 146.181c8.652 0 15.691 7.039 15.691 15.691s-7.039 15.691-15.691 15.691-15.691-7.039-15.691-15.691 7.038-15.691 15.691-15.691zm-97.289-48.727c8.652 0 15.691 7.039 15.691 15.691s-7.039 15.691-15.691 15.691-15.691-7.039-15.691-15.691 7.038-15.691 15.691-15.691zm-97.289 97.453c8.652 0 15.691 7.039 15.691 15.691s-7.039 15.691-15.691 15.691-15.691-7.039-15.691-15.691 7.039-15.691 15.691-15.691zm-97.288 80.111c-8.652 0-15.691-7.039-15.691-15.691s7.039-15.691 15.691-15.691 15.691 7.039 15.691 15.691-7.038 15.691-15.691 15.691z"/><path d="m498.712 497h-9.281v-164.807c0-4.143-3.357-7.5-7.5-7.5s-7.5 3.357-7.5 7.5v164.807h-47.709v-373.651h47.709v173.845c0 4.143 3.357 7.5 7.5 7.5s7.5-3.357 7.5-7.5v-175.073c0-7.594-6.179-13.772-13.772-13.772h-50.164c-7.594 0-13.772 6.179-13.772 13.772v374.879h-19.58v-228.014c0-7.594-6.178-13.772-13.771-13.772h-7.582c-4.143 0-7.5 3.357-7.5 7.5s3.357 7.5 7.5 7.5h6.354v226.786h-47.708v-226.786h6.354c4.143 0 7.5-3.357 7.5-7.5s-3.357-7.5-7.5-7.5h-7.583c-7.594 0-13.771 6.179-13.771 13.772v228.014h-19.58v-277.166c0-7.594-6.179-13.771-13.772-13.771h-50.164c-7.594 0-13.771 6.178-13.771 13.771v277.166h-19.58v-179.287c0-7.594-6.179-13.772-13.772-13.772h-50.164c-7.594 0-13.772 6.179-13.772 13.772v179.287h-19.58v-130.561c0-7.594-6.178-13.771-13.771-13.771h-50.169c-7.594 0-13.772 6.178-13.772 13.771v130.561h-9.281c-4.143 0-7.5 3.357-7.5 7.5s3.357 7.5 7.5 7.5h485.425c4.143 0 7.5-3.357 7.5-7.5s-3.358-7.5-7.501-7.5zm-461.143 0v-129.332h47.708v129.332zm97.288 0v-178.06h47.709v178.06zm97.289 0v-275.937h47.708v275.937z"/></svg>