<?xml version="1.0" encoding="iso-8859-1"?>
<!-- Generator: Adobe Illustrator 22.1.0, SVG Export Plug-In . SVG Version: 6.00 Build 0)  -->
<svg xmlns="http://www.w3.org/2000/svg" xmlns:xlink="http://www.w3.org/1999/xlink" version="1.1" id="Layer_3" x="0px" y="0px" viewBox="0 0 64 64" style="enable-background:new 0 0 64 64;" xml:space="preserve" width="512" height="512">
<g>
	<g>
		<path style="fill:#00B968;" d="M17.732,24C17.903,23.706,18,23.364,18,23c0-1.105-0.895-2-2-2c0-1.105-0.895-2-2-2s-2,0.895-2,2    c-1.105,0-2,0.895-2,2c0,0.364,0.097,0.706,0.268,1"/>
	</g>
	<g>
		<rect x="56" y="24" style="fill:#008B4E;" width="4" height="8"/>
	</g>
	<g>
		<rect x="56" y="24" style="fill:#00B968;" width="2" height="8"/>
	</g>
	<g>
		<rect x="26" y="28" style="fill:#A67C52;" width="12" height="4"/>
	</g>
	<g>
		<rect x="26" y="28" style="fill:#C69C6D;" width="9" height="4"/>
	</g>
	<g>
		<rect x="38" y="28" style="fill:#A67C52;" width="12" height="4"/>
	</g>
	<g>
		<rect x="38" y="28" style="fill:#C69C6D;" width="9" height="4"/>
	</g>
	<g>
		<rect x="8" y="24" style="fill:#98572C;" width="12" height="8"/>
	</g>
	<g>
		<rect x="8" y="24" style="fill:#CA743A;" width="9" height="8"/>
	</g>
	<g>
		<rect x="32" y="36" style="fill:#5B5756;" width="28" height="26"/>
	</g>
	<g>
		<rect x="32" y="36" style="fill:#797473;" width="25" height="26"/>
	</g>
	<g>
		<rect x="4" y="36" style="fill:#5B5756;" width="28" height="26"/>
	</g>
	<g>
		<rect x="4" y="36" style="fill:#797473;" width="25" height="26"/>
	</g>
	<g>
		<circle style="fill:#BA4737;" cx="26" cy="42" r="2"/>
	</g>
	<g>
		<ellipse style="fill:#F85E49;" cx="25" cy="42" rx="1" ry="1.723"/>
	</g>
	<g>
		<circle style="fill:#BA4737;" cx="18" cy="42" r="2"/>
	</g>
	<g>
		<ellipse style="fill:#F85E49;" cx="17" cy="42" rx="1" ry="1.723"/>
	</g>
	<g>
		<circle style="fill:#BA4737;" cx="10" cy="42" r="2"/>
	</g>
	<g>
		<ellipse style="fill:#F85E49;" cx="9" cy="42" rx="1" ry="1.723"/>
	</g>
	<g>
		<circle style="fill:#BA4737;" cx="38" cy="42" r="2"/>
	</g>
	<g>
		<ellipse style="fill:#F85E49;" cx="37" cy="42" rx="1" ry="1.723"/>
	</g>
	<g>
		<circle style="fill:#BA4737;" cx="46" cy="42" r="2"/>
	</g>
	<g>
		<ellipse style="fill:#F85E49;" cx="45" cy="42" rx="1" ry="1.723"/>
	</g>
	<g>
		<circle style="fill:#BA4737;" cx="54" cy="42" r="2"/>
	</g>
	<g>
		<ellipse style="fill:#F85E49;" cx="53" cy="42" rx="1" ry="1.723"/>
	</g>
	<g>
		<rect x="8" y="48" style="fill:#B8A556;" width="20" height="10"/>
	</g>
	<g>
		<rect x="8" y="48" style="fill:#F5DC73;" width="17" height="10"/>
	</g>
	<g>
		<rect x="36" y="48" style="fill:#B8A556;" width="20" height="10"/>
	</g>
	<g>
		<rect x="36" y="48" style="fill:#F5DC73;" width="17" height="10"/>
	</g>
	<g>
		<rect x="2" y="32" style="fill:#797473;" width="60" height="4"/>
	</g>
	<g>
		<rect x="2" y="32" style="fill:#B5AEAC;" width="57" height="4"/>
	</g>
	<g>
		<polyline style="fill:#797473;" points="29,6 29,1 35,1 35,6   "/>
	</g>
	<g>
		<rect x="29" y="1" style="fill:#B5AEAC;" width="3" height="5"/>
	</g>
	<g>
		<polygon style="fill:#797473;" points="56,12 8,12 12,6 52,6   "/>
	</g>
	<g>
		<polygon style="fill:#B5AEAC;" points="12,6 8,12 53,12 49,6   "/>
	</g>
	<g>
		<path d="M62,37H2c-0.552,0-1-0.447-1-1v-4c0-0.553,0.448-1,1-1h60c0.552,0,1,0.447,1,1v4C63,36.553,62.552,37,62,37z M3,35h58v-2    H3V35z"/>
	</g>
	<g>
		<path d="M60,63H4c-0.552,0-1-0.447-1-1V36c0-0.553,0.448-1,1-1h56c0.552,0,1,0.447,1,1v26C61,62.553,60.552,63,60,63z M5,61h54V37    H5V61z"/>
	</g>
	<g>
		<path d="M28,59H8c-0.552,0-1-0.447-1-1V48c0-0.553,0.448-1,1-1h20c0.552,0,1,0.447,1,1v10C29,58.553,28.552,59,28,59z M9,57h18v-8    H9V57z"/>
	</g>
	<g>
		<path d="M10,45c-1.654,0-3-1.346-3-3s1.346-3,3-3s3,1.346,3,3S11.654,45,10,45z M10,41c-0.551,0-1,0.448-1,1s0.449,1,1,1    s1-0.448,1-1S10.551,41,10,41z"/>
	</g>
	<g>
		<path d="M18,45c-1.654,0-3-1.346-3-3s1.346-3,3-3s3,1.346,3,3S19.654,45,18,45z M18,41c-0.551,0-1,0.448-1,1s0.449,1,1,1    s1-0.448,1-1S18.551,41,18,41z"/>
	</g>
	<g>
		<path d="M26,45c-1.654,0-3-1.346-3-3s1.346-3,3-3s3,1.346,3,3S27.654,45,26,45z M26,41c-0.551,0-1,0.448-1,1s0.449,1,1,1    s1-0.448,1-1S26.551,41,26,41z"/>
	</g>
	<g>
		<rect x="8" y="53" width="20" height="2"/>
	</g>
	<g>
		<path d="M56,59H36c-0.552,0-1-0.447-1-1V48c0-0.553,0.448-1,1-1h20c0.552,0,1,0.447,1,1v10C57,58.553,56.552,59,56,59z M37,57h18    v-8H37V57z"/>
	</g>
	<g>
		<path d="M38,45c-1.654,0-3-1.346-3-3s1.346-3,3-3s3,1.346,3,3S39.654,45,38,45z M38,41c-0.551,0-1,0.448-1,1s0.449,1,1,1    s1-0.448,1-1S38.551,41,38,41z"/>
	</g>
	<g>
		<path d="M46,45c-1.654,0-3-1.346-3-3s1.346-3,3-3s3,1.346,3,3S47.654,45,46,45z M46,41c-0.551,0-1,0.448-1,1s0.449,1,1,1    s1-0.448,1-1S46.551,41,46,41z"/>
	</g>
	<g>
		<path d="M54,45c-1.654,0-3-1.346-3-3s1.346-3,3-3s3,1.346,3,3S55.654,45,54,45z M54,41c-0.551,0-1,0.448-1,1s0.449,1,1,1    s1-0.448,1-1S54.551,41,54,41z"/>
	</g>
	<g>
		<rect x="36" y="53" width="20" height="2"/>
	</g>
	<g>
		<rect x="31" y="36" width="2" height="26"/>
	</g>
	<g>
		<path d="M56,13H8c-0.369,0-0.708-0.203-0.882-0.528c-0.174-0.325-0.155-0.72,0.05-1.026l4-6C11.354,5.167,11.666,5,12,5h40    c0.334,0,0.646,0.167,0.832,0.445l4,6c0.205,0.307,0.224,0.701,0.05,1.026C56.708,12.797,56.369,13,56,13z M9.869,11h44.263    l-2.667-4h-38.93L9.869,11z"/>
	</g>
	<g>
		<rect x="28" y="1" width="2" height="5"/>
	</g>
	<g>
		<rect x="34" y="1" width="2" height="5"/>
	</g>
	<g>
		<path d="M20,33H8c-0.552,0-1-0.447-1-1v-8c0-0.553,0.448-1,1-1h12c0.552,0,1,0.447,1,1v8C21,32.553,20.552,33,20,33z M9,31h10v-6    H9V31z"/>
	</g>
	<g>
		<path d="M18.598,24.5l-1.731-1C16.954,23.349,17,23.176,17,23c0-0.552-0.449-1-1-1c-0.552,0-1-0.447-1-1c0-0.552-0.449-1-1-1    s-1,0.448-1,1c0,0.553-0.448,1-1,1c-0.551,0-1,0.448-1,1c0,0.176,0.046,0.349,0.133,0.5l-1.731,1C9.139,24.046,9,23.527,9,23    c0-1.352,0.898-2.497,2.129-2.871C11.503,18.898,12.648,18,14,18s2.497,0.898,2.871,2.129C18.102,20.503,19,21.648,19,23    C19,23.527,18.861,24.046,18.598,24.5z"/>
	</g>
	<g>
		<path d="M38,33H26c-0.552,0-1-0.447-1-1v-4c0-0.553,0.448-1,1-1h12c0.552,0,1,0.447,1,1v4C39,32.553,38.552,33,38,33z M27,31h10    v-2H27V31z"/>
	</g>
	<g>
		<path d="M50,33H38c-0.552,0-1-0.447-1-1v-4c0-0.553,0.448-1,1-1h12c0.552,0,1,0.447,1,1v4C51,32.553,50.552,33,50,33z M39,31h10    v-2H39V31z"/>
	</g>
	<g>
		<path d="M60,33h-4c-0.552,0-1-0.447-1-1v-8c0-0.553,0.448-1,1-1h4c0.552,0,1,0.447,1,1v8C61,32.553,60.552,33,60,33z M57,31h2v-6    h-2V31z"/>
	</g>
	<g>
		<rect x="57" y="19" width="2" height="5"/>
	</g>
</g>
</svg>
