<?xml version="1.0"?>
<svg xmlns="http://www.w3.org/2000/svg" xmlns:xlink="http://www.w3.org/1999/xlink" xmlns:svgjs="http://svgjs.com/svgjs" version="1.1" width="512" height="512" x="0" y="0" viewBox="0 0 512 512" style="enable-background:new 0 0 512 512" xml:space="preserve" class=""><g><g xmlns="http://www.w3.org/2000/svg"><g><g><g><path d="m288.131 239.94v-192.8c0-17.747-14.387-32.133-32.133-32.133-17.75 0-32.135 14.386-32.135 32.133v192.8c0 17.747 14.385 32.133 32.135 32.133 17.746 0 32.133-14.385 32.133-32.133z" fill="#ff5b5b" data-original="#ff5b5b" class=""/></g></g><g><path d="m403.807 140.571c-.041-.042-.074-.087-.115-.128-12.551-12.549-32.896-12.546-45.443 0-12.551 12.549-12.547 32.893.004 45.443l-.006.006c26.166 26.166 42.352 62.316 42.352 102.248 0 79.86-64.738 144.6-144.6 144.6s-144.6-64.739-144.6-144.6c0-39.932 16.184-76.082 42.352-102.248 12.549-12.549 12.545-32.895 0-45.444-12.553-12.546-32.896-12.548-45.441.001h-.002c-37.797 37.798-61.176 90.016-61.176 147.691 0 115.354 93.514 208.867 208.867 208.867s208.865-93.514 208.865-208.867c-.001-57.616-23.329-109.781-61.057-147.569z" fill="#ff5b5b" data-original="#ff5b5b" class=""/></g></g><g><path d="m256 287.066c25.99 0 47.133-21.144 47.133-47.133v-192.8c0-25.988-21.143-47.133-47.133-47.133s-47.135 21.145-47.135 47.134v192.8c0 25.989 21.145 47.132 47.135 47.132zm-17.135-239.932c0-9.447 7.688-17.134 17.135-17.134s17.133 7.687 17.133 17.134v192.8c0 9.447-7.686 17.133-17.133 17.133s-17.135-7.686-17.135-17.133z" fill="#000000" data-original="#000000" class=""/><path d="m414.658 130.201c-.123-.131-.244-.259-.359-.372-8.902-8.901-20.738-13.803-33.326-13.803-12.59 0-24.426 4.901-33.328 13.803-8.904 8.902-13.807 20.739-13.805 33.33.002 12.387 4.748 24.044 13.383 32.896.135.147.275.293.42.437 24.477 24.478 37.957 57.023 37.957 91.642 0 71.462-58.137 129.6-129.6 129.6-71.461 0-129.6-58.138-129.6-129.6 0-34.62 13.48-67.165 37.959-91.642 18.373-18.374 18.375-48.275-.004-66.66-8.904-8.899-20.74-13.801-33.328-13.801s-24.424 4.902-33.324 13.805c-42.283 42.283-65.568 98.501-65.568 158.298s23.285 116.014 65.568 158.297 98.5 65.569 158.297 65.569 116.016-23.286 158.297-65.569c42.283-42.282 65.568-98.5 65.568-158.297 0-59.619-23.152-115.693-65.207-157.933zm-158.658 351.799c-106.898 0-193.865-86.968-193.865-193.866 0-51.784 20.166-100.469 56.785-137.087 3.232-3.234 7.533-5.016 12.107-5.016 4.578 0 8.883 1.783 12.117 5.015 6.68 6.683 6.68 17.554.002 24.232-30.144 30.143-46.746 70.222-46.746 112.856 0 88.004 71.596 159.6 159.6 159.6s159.6-71.596 159.6-159.6c0-42.457-16.463-82.38-46.373-112.481-.119-.128-.24-.254-.365-.379-3.238-3.238-5.021-7.541-5.021-12.118-.002-4.575 1.781-8.876 5.018-12.111 3.234-3.236 7.537-5.018 12.115-5.018 4.486 0 8.711 1.713 11.924 4.829.066.069.129.137.191.199l.105.108c36.547 36.603 56.672 85.246 56.672 136.971-.001 106.898-86.968 193.866-193.866 193.866z" fill="#000000" data-original="#000000" class=""/></g></g></g></svg>
