<svg id="Layer_1" enable-background="new 0 0 511.76 511.76" height="512" viewBox="0 0 511.76 511.76" width="512" xmlns="http://www.w3.org/2000/svg"><g><g><path d="m423.102 182.913-1 1.927v256.549c0 2.206-1.794 4-4 4h-131.187l-.519 1-16.328 34.426h182.459c2.761 0 5-2.239 5-5v-304.772c-10.295 6.186-21.956 10.33-34.425 11.87z" fill="#cbe5e8"/><g><g><path d="m412.187 183.585c-48.691 0-88.163-39.472-88.163-88.163 0-15.966 4.244-30.939 11.665-43.856h-129.675c-2.761 0-5 2.239-5 5v172.398c42.027 16.357 71.787 53.137 73.941 101.627.137 3.083-2.358 5.648-5.443 5.648h-5.311v29.919h.711c8.62 0 15.608 6.988 15.608 15.608v7.951c0 8.62-6.988 15.608-15.608 15.608h-.711v14.458c0 7.898-2.099 15.302-5.753 21.704h25.53c2.203 0 3.655 2.295 2.711 4.286l-.292.615h131.706c2.761 0 5-2.239 5-5v-258.475c-3.578.441-7.22.672-10.916.672z" fill="#eef5f6"/></g></g><g><g><path d="m243.913 56.566c0-2.761 2.239-5 5-5h-42.899c-2.761 0-5 2.239-5 5v172.398c16.506 6.424 31.107 16.011 42.899 28.208z" fill="#deecf1"/></g></g><g><g><circle cx="412.187" cy="95.423" fill="#00f2a6" r="88.163"/></g><g><path d="m371.628 95.423c0-40.443 27.233-74.522 64.361-84.908-7.572-2.118-15.554-3.254-23.802-3.254-48.691 0-88.163 39.472-88.163 88.163s39.472 88.163 88.163 88.163c8.248 0 16.23-1.136 23.802-3.254-37.128-10.388-64.361-44.468-64.361-84.91z" fill="#0ed290"/></g></g></g><g><g><path d="m258.448 441.488c3.654-6.401 5.753-13.805 5.753-21.704v-14.458h-228.472v14.458c0 7.898 2.099 15.302 5.753 21.704z" fill="#ffbd86"/></g><g><path d="m86.529 405.326h-50.8v14.458c0 7.898 2.099 15.302 5.753 21.704h50.8c-3.654-6.401-5.753-13.805-5.753-21.704z" fill="#f6a96c"/></g><g><path d="m264.912 366.159h-.711-25.023c-4.25 0-8.351 1.569-11.516 4.406l-20.267 18.171c-6.553 5.875-16.478 5.875-23.031 0l-20.267-18.171c-3.165-2.837-7.265-4.406-11.516-4.406h-116.852-.711c-8.62 0-15.608 6.988-15.608 15.608v7.951c0 8.62 6.988 15.608 15.608 15.608h229.895c8.62 0 15.608-6.988 15.608-15.608v-7.951c-.001-8.62-6.989-15.608-15.609-15.608z" fill="#ca6e59"/></g><g><g><path d="m70.001 389.718v-7.951c0-8.62 6.988-15.608 15.608-15.608h-49.88-.711c-8.62 0-15.608 6.988-15.608 15.608v7.951c0 8.62 6.988 15.608 15.608 15.608h50.591c-8.62 0-15.608-6.988-15.608-15.608z" fill="#bb5d4c"/></g></g><path d="m35.729 335.24v30.919h116.852c4.25 0 8.351 1.569 11.516 4.406l20.267 18.171c6.553 5.875 16.478 5.875 23.031 0l20.268-18.171c3.165-2.837 7.265-4.406 11.516-4.406h25.023v-30.919z" fill="#ffe177"/><g><g><path d="m35.729 336.24h42.272v29.919h-42.272z" fill="#ffd15b"/></g></g><g><path d="m149.965 219.634c-67.207 0-122.037 44.48-124.991 110.958-.137 3.082 2.358 5.648 5.443 5.648h239.094c3.085 0 5.58-2.566 5.443-5.648-2.952-66.478-57.782-110.958-124.989-110.958z" fill="#ffbd86"/></g><g><path d="m75.015 330.592c2.577-58.002 44.647-99.253 99.97-108.831-8.085-1.4-16.451-2.127-25.02-2.127-67.206 0-122.037 44.48-124.99 110.958-.137 3.083 2.358 5.648 5.443 5.648h50.04c-3.085 0-5.58-2.566-5.443-5.648z" fill="#f6a96c"/></g></g><g><path d="m259.762 502.546 26.926-56.772c.944-1.99-.508-4.286-2.711-4.286h-268.025c-2.203 0-3.655 2.295-2.711 4.286l26.926 56.772c.497 1.047 1.552 1.714 2.711 1.714h214.173c1.159 0 2.215-.667 2.711-1.714z" fill="#00f2a6"/></g><g><path d="m90.22 502.546-26.926-56.772c-.944-1.99.508-4.286 2.711-4.286h-50.053c-2.203 0-3.655 2.295-2.711 4.286l26.926 56.772c.497 1.047 1.552 1.714 2.711 1.714h50.052c-1.158 0-2.214-.668-2.71-1.714z" fill="#0ed290"/></g><g><path d="m255.123 183.681c.344 9.931 14.66 9.923 15 0v-8.417h1.07c30.49-1.16 30.466-44.868 0-46.017h-17.141c-10.602-.378-10.594-15.642 0-16.016h30.2c9.931-.344 9.923-14.659 0-15h-14.13v-8.417c-.344-9.931-14.66-9.923-15 0v8.417h-1.07c-30.489 1.16-30.466 44.866 0 46.016h17.141c10.601.377 10.594 15.643 0 16.017h-30.2c-9.931.344-9.923 14.659 0 15h14.13z"/><path d="m326.737 228.042h-64.736c-9.931.344-9.923 14.659 0 15h64.736c9.931-.344 9.924-14.659 0-15z"/><path d="m387.04 228.042h-26.583c-9.931.344-9.923 14.659 0 15h26.583c9.931-.344 9.924-14.659 0-15z"/><path d="m387.04 264.92h-26.583c-9.931.344-9.923 14.659 0 15h26.583c9.931-.344 9.924-14.659 0-15z"/><path d="m387.04 301.798h-26.583c-9.931.344-9.923 14.659 0 15h26.583c9.931-.344 9.924-14.659 0-15z"/><path d="m387.04 338.676h-26.583c-9.931.344-9.923 14.659 0 15h26.583c9.931-.344 9.924-14.66 0-15z"/><path d="m387.04 375.555h-26.583c-9.931.344-9.923 14.659 0 15h26.583c9.931-.344 9.924-14.66 0-15z"/><path d="m500.214 104.388c-4.07-.756-7.99 1.919-8.753 5.99-20.296 95.37-157.563 82.603-159.937-14.957-.5-67.291 79.936-105.406 131.653-62.5 14.139 11.552 24.032 27.682 27.855 45.419.873 4.049 4.866 6.618 8.912 5.752 4.049-.873 6.625-4.863 5.751-8.912-18.504-83.725-128.763-102.417-174.184-31.113h-125.497c-6.893 0-12.5 5.607-12.5 12.5v161.805c-82.176-25.606-174.103 26.384-176.032 111.888-.155 3.49 1.146 6.944 3.567 9.477 1.924 2.011 4.463 3.33 7.18 3.801v16.141c-9.439 2.907-16.319 11.709-16.319 22.089v7.95c0 10.38 6.88 19.182 16.319 22.089v7.977c0 4.822.699 9.604 2.031 14.204h-14.308c-7.523-.184-12.877 8.283-9.487 14.999l26.925 56.77c1.728 3.646 5.452 6.003 9.488 6.003h214.173c4.036 0 7.76-2.356 9.488-6.003l8.273-17.442h177.716c6.893 0 12.5-5.607 12.5-12.5v-300.666c20.953-13.888 36.277-35.865 41.177-62.007.763-4.072-1.92-7.99-5.991-8.754zm-431.934 151.471c49.333-43.985 142.91-36.892 180.652 19.047.427 1.214 1.156 2.283 2.099 3.12 9.583 14.805 15.137 31.941 16.315 50.714h-147.697c-9.931.344-9.923 14.659 0 15h137.052v14.919h-17.523c-6.106 0-11.974 2.245-16.522 6.322l-20.267 18.171c-3.711 3.326-9.307 3.327-13.019 0l-20.268-18.172c-4.547-4.076-10.415-6.321-16.522-6.321h-109.351v-14.919h41.42c9.931-.344 9.923-14.659 0-15h-52.065c1.825-29.085 14.138-54.248 35.696-72.881zm139.032 141.967c1.798-.94 3.514-2.094 5.089-3.506l20.268-18.17c1.792-1.606 4.103-2.491 6.509-2.491h25.023.711c4.471 0 8.108 3.638 8.108 8.108v7.95c0 4.471-3.637 8.108-8.108 8.108h-57.6zm49.389 15v6.958c0 4.891-.992 9.729-2.892 14.204h-207.688c-1.9-4.475-2.892-9.313-2.892-14.204v-6.958zm-229.791-23.108v-7.95c0-4.471 3.637-8.108 8.108-8.108h.711 116.851c2.406 0 4.718.885 6.509 2.49l20.268 18.171c1.575 1.412 3.292 2.566 5.089 3.506h-149.429c-4.47-.001-8.107-3.638-8.107-8.109zm227.295 107.042h-208.48l-22.657-47.771h253.794zm195.823-23.445h-168.102l9.213-19.426h126.962c6.893 0 12.5-5.607 12.5-12.5v-47.629c-.344-9.931-14.659-9.923-15 0v45.129h-122.742c-.003-.004-.004-.009-.007-.013-1.936-3.061-5.253-4.888-8.875-4.888h-14.307c1.331-4.6 2.031-9.382 2.031-14.204v-7.977c9.183-2.828 15.924-11.24 16.285-21.252h38.751c9.931-.344 9.923-14.659 0-15h-39.582c-2.115-7.56-7.974-13.573-15.454-15.876v-6.002h55.036c9.931-.344 9.923-14.659 0-15h-46.953c1.835-2.394 2.798-5.391 2.664-8.417-.203-4.575-.649-9.063-1.313-13.461h45.602c9.931-.344 9.923-14.659 0-15h-48.827c-2.159-7.662-5.034-14.975-8.568-21.878h57.395c9.931-.344 9.923-14.659 0-15h-66.553c-12.797-17.805-30.518-31.938-51.67-41.083v-164.771h115.194c-26.972 62.481 23.675 135.562 91.894 131.943v167.75c.344 9.931 14.659 9.923 15 0v-169.476c6.739-1.319 13.243-3.344 19.426-6.01z"/><path d="m447.214 64.278-40.501 49.126-28.263-28.263c-2.929-2.928-7.678-2.928-10.606 0-2.929 2.93-2.929 7.678 0 10.607l34.101 34.101c1.493 1.495 3.561 2.291 5.663 2.188 2.112-.102 4.083-1.089 5.428-2.721l45.754-55.497c2.635-3.195 2.18-7.923-1.016-10.558-3.199-2.634-7.926-2.18-10.56 1.017z"/><path d="m144.525 254.188h10.879c9.931-.344 9.923-14.659 0-15h-10.879c-9.931.344-9.923 14.659 0 15z"/><path d="m99.193 268.756h10.88c9.931-.344 9.923-14.659 0-15h-10.88c-9.931.344-9.923 14.659 0 15z"/><path d="m189.494 268.756h10.88c9.931-.344 9.923-14.659 0-15h-10.88c-9.931.344-9.923 14.659 0 15z"/></g></g></svg>