<svg id="Capa_1" enable-background="new 0 0 512 512" height="512" viewBox="0 0 512 512" width="512" xmlns="http://www.w3.org/2000/svg"><g><path d="m449.107 242.426-9.037 117.481-127.69-28.332-25.802 38.703c-.583.874-1.82.997-2.563.254l-28.015-28.015-28.015 28.015c-.743.743-1.98.62-2.563-.254l-25.802-38.703-127.69 28.333-9.037-117.481h-55.173v143.649c0 19.697 15.968 35.664 35.664 35.664h102.173v81.715c0 .577.468 1.045 1.045 1.045h218.796c.577 0 1.045-.468 1.045-1.045v-81.715h102.173c19.697 0 35.664-15.968 35.664-35.664v-143.65z" fill="#dfdde2"/><path d="m464.314 242.426v123.666c0 19.697-15.968 35.664-35.664 35.664h-64.187c-20.979 0-37.986 17.007-37.986 37.986v5.743c0 21.556-17.475 39.031-39.031 39.031h-141.889v18.938c0 .577.468 1.045 1.045 1.045h218.796c.577 0 1.045-.468 1.045-1.045v-81.714h102.173c19.697 0 35.664-15.968 35.664-35.664v-143.65z" fill="#c6c1c8"/><path d="m90.658 266.485 32.657-37.603c.289-.332.804-.332 1.093 0l32.657 37.603c.407.469.074 1.198-.546 1.198h-17.06c-.4 0-.724.324-.724.724v46.981c0 .4-.324.724-.724.724h-27.609c-.4 0-.724-.324-.724-.724v-46.981c0-.4-.324-.724-.724-.724h-17.749c-.621.001-.953-.729-.547-1.198z" fill="#b7e445"/><path d="m421.342 266.485-32.657-37.603c-.289-.332-.804-.332-1.093 0l-32.657 37.603c-.407.469-.074 1.198.546 1.198h17.06c.4 0 .724.324.724.724v46.981c0 .4.324.724.724.724h27.609c.4 0 .724-.324.724-.724v-46.981c0-.4.324-.724.724-.724h17.749c.621.001.954-.729.547-1.198z" fill="#b7e445"/><path d="m183.054 184.126h-14.417c-9.787 0-17.721 7.934-17.721 17.721 0 19.231 15.59 34.821 34.821 34.821h.669z" fill="#eaac9d"/><path d="m343.363 184.126h-14.417l-3.352 52.542h.669c19.231 0 34.821-15.59 34.821-34.821-.001-9.787-7.935-17.721-17.721-17.721z" fill="#df9380"/><path d="m212.958 313.822 43.042 28.694-28.015 28.015c-.743.743-1.98.62-2.563-.254l-27.568-41.352c-.44-.66-.353-1.54.208-2.101l12.795-12.795c.562-.56 1.441-.647 2.101-.207z" fill="#f1f1f4"/><path d="m299.042 313.822-43.042 28.694 28.015 28.015c.743.743 1.98.62 2.563-.254l27.568-41.352c.44-.66.353-1.54-.208-2.101l-12.795-12.795c-.562-.56-1.441-.647-2.101-.207z" fill="#f1f1f4"/><path d="m256 342.516-22.089 22.089 7.363 22.089h29.452l7.363-22.089z" fill="#dd636e"/><path d="m295.406 306.044v-15.902c-11.235 7.71-24.823 12.202-39.406 12.202-14.583 0-28.171-4.492-39.406-12.202v15.902c0 3.197-.525 6.295-1.501 9.201l40.907 27.271 40.907-27.271c-.976-2.906-1.501-6.004-1.501-9.201z" fill="#df9380"/><path d="m327.237 210.907-25.848-43.079c-.752-1.253-2.106-2.02-3.568-2.02h-26.41c-19.819 0-39.366-4.614-57.092-13.478-1.379-.689-3.054-.132-3.744 1.247-3.833 7.666-15.805 31.607-26.135 52.267l1.993 31.231c2.342 36.701 32.792 65.27 69.567 65.27 36.776 0 67.226-28.569 69.567-65.27z" fill="#ffcbbe"/><path d="m214.319 152.329c17.727 8.863 37.273 13.478 57.092 13.478h26.41c1.462 0 2.816.767 3.568 2.02l25.848 43.079 3.469-54.373c2.752-43.131-31.488-79.625-74.707-79.625-2.926 0-24.473-.503-44.999 15.027-1.585 1.199-1.964 3.426-.862 5.08 1.704 2.556 2.274 3.411 2.274 3.411-1.082-1.623-2.84-2.67-4.783-2.85-1.943-.179-3.862.53-5.224 1.927-14.23 14.597-22.521 34.943-21.112 57.03l3.146 49.311c10.33-20.66 22.302-44.602 26.135-52.268.69-1.378 2.366-1.936 3.745-1.247z" fill="#9d6b6b"/><path d="m52.297 159.666h-23.486c-11.648 0-21.091 9.443-21.091 21.091v61.669h55.173v-26.034c0-2.249 1.066-4.399 2.936-5.648 6.546-4.374 10.857-11.83 10.857-20.294v-6.394c0-13.47-10.919-24.39-24.389-24.39z" fill="#ffcbbe"/><path d="m459.703 159.666h23.486c11.648 0 21.091 9.443 21.091 21.091v61.669h-55.173v-26.034c0-2.249-1.066-4.399-2.936-5.648-6.546-4.374-10.857-11.83-10.857-20.294v-6.394c0-13.47 10.919-24.39 24.389-24.39z" fill="#ffcbbe"/><path d="m285.126 482.167c.208-.257.297-.59.246-.917l-14.646-94.557h-29.452l-14.646 94.557c-.051.327.039.66.246.917l18.005 22.333h22.241z" fill="#da4a54"/><path d="m228.769 484.517 16.11 19.983h22.242l16.111-19.983z" fill="#d82e3d"/><path d="m168.216 67.374-51.656-59.48c-.456-.526-1.272-.526-1.729 0l-51.656 59.48c-.644.741-.117 1.896.864 1.896h26.986c.632 0 1.145.513 1.145 1.145v74.313c0 .632.513 1.145 1.145 1.145h43.672c.632 0 1.145-.513 1.145-1.145v-74.313c0-.632.513-1.145 1.145-1.145h28.074c.982 0 1.509-1.155.865-1.896z" fill="#b7e445"/><path d="m343.784 67.374 51.656-59.48c.456-.526 1.272-.526 1.729 0l51.656 59.48c.644.741.117 1.896-.864 1.896h-26.986c-.632 0-1.145.513-1.145 1.145v74.313c0 .632-.513 1.145-1.145 1.145h-43.672c-.632 0-1.145-.513-1.145-1.145v-74.313c0-.632-.513-1.145-1.145-1.145h-28.074c-.982 0-1.508-1.155-.865-1.896z" fill="#b7e445"/><path d="m301.389 167.827c-.752-1.253-2.106-2.02-3.568-2.02h-25.621l7.245 12.075c5.096 8.493 7.487 18.336 6.857 28.22l-.701 10.989c-2.342 36.701-32.792 65.27-69.567 65.27-3.234 0-6.418-.221-9.539-.649 12.666 12.772 30.215 20.632 49.506 20.632 36.776 0 67.226-28.569 69.567-65.27l1.67-26.168z" fill="#eaac9d"/><path d="m110.401 323.612h27.609c4.535 0 8.224-3.689 8.224-8.224v-40.205h10.284c3.213 0 6.15-1.889 7.483-4.812s.833-6.379-1.273-8.804l-32.655-37.601c-1.563-1.801-3.827-2.834-6.211-2.834s-4.648 1.033-6.209 2.832l-32.656 37.603c-2.106 2.424-2.606 5.879-1.275 8.801 1.333 2.925 4.27 4.814 7.484 4.814h10.972v40.205c-.001 4.536 3.689 8.225 8.223 8.225zm13.461-83.921 17.797 20.493h-2.201c-4.535 0-8.224 3.689-8.224 8.224v40.205h-14.057v-40.205c0-4.535-3.689-8.224-8.224-8.224h-2.889zm-27.544 31.716c.001-.001-.003.003.012-.013z"/><path d="m373.989 323.612h27.609c4.535 0 8.225-3.689 8.225-8.224v-40.205h10.972c3.214 0 6.151-1.89 7.484-4.814 1.331-2.923.831-6.377-1.274-8.802l-32.651-37.596c-1.562-1.802-3.824-2.836-6.208-2.838-2.462 0-4.698 1.085-6.217 2.832l-32.652 37.6c-2.109 2.425-2.61 5.881-1.278 8.806 1.332 2.924 4.27 4.814 7.483 4.814h10.284v40.205c0 4.533 3.689 8.222 8.223 8.222zm41.691-52.209c.001.001.002.002.003.004-.005-.005-.01-.011-.014-.016zm-27.541-31.712 17.797 20.492h-2.889c-4.534 0-8.224 3.689-8.224 8.224v40.205h-14.058v-40.205c0-4.535-3.689-8.224-8.224-8.224h-2.2z"/><path d="m249.433 243.755h1.768c10.403 0 18.867-8.464 18.867-18.867v-14.904c0-4.142-3.357-7.5-7.5-7.5s-7.5 3.358-7.5 7.5v14.904c0 2.132-1.735 3.867-3.867 3.867h-1.768c-4.142 0-7.5 3.358-7.5 7.5s3.358 7.5 7.5 7.5z"/><path d="m64.04 76.77h20.63v67.958c0 4.767 3.878 8.645 8.645 8.645h43.672c4.767 0 8.645-3.878 8.645-8.645v-28.342c0-4.142-3.358-7.5-7.5-7.5s-7.5 3.358-7.5 7.5v21.987h-30.962v-67.958c0-4.767-3.878-8.645-8.645-8.645h-13.048l37.719-43.433 37.719 43.433h-14.138c-4.767 0-8.645 3.878-8.645 8.645v11c0 4.142 3.358 7.5 7.5 7.5s7.5-3.358 7.5-7.5v-4.645h21.719c3.377 0 6.465-1.986 7.866-5.059s.875-6.706-1.339-9.254l-51.654-59.479c-1.642-1.892-4.021-2.978-6.526-2.978-2.537 0-4.905 1.107-6.529 2.977l-51.656 59.481c-2.214 2.55-2.739 6.183-1.338 9.255s4.488 5.057 7.865 5.057z"/><path d="m344.648 76.77h21.72v67.958c0 4.767 3.878 8.645 8.645 8.645h43.672c4.767 0 8.645-3.878 8.645-8.645v-67.958h20.631c3.377 0 6.464-1.985 7.865-5.058s.876-6.705-1.338-9.256l-51.66-59.485c-1.643-1.888-4.021-2.971-6.524-2.971-2.502 0-4.88 1.083-6.527 2.977l-51.655 59.48v.001c-2.214 2.55-2.739 6.183-1.338 9.255s4.487 5.057 7.864 5.057zm51.657-58.434 37.719 43.434h-13.049c-4.768 0-8.646 3.878-8.646 8.645v67.958h-30.961v-67.958c0-4.767-3.878-8.645-8.646-8.645h-14.138z"/><path d="m483.189 152.166h-23.486c-17.584 0-31.89 14.306-31.89 31.89v6.394c0 10.516 5.146 20.296 13.794 26.261v25.433l-1.882 24.463c-.318 4.13 2.772 7.735 6.902 8.053 4.137.313 7.734-2.773 8.053-6.903l1.372-17.831h40.728v12.587h-20.086c-4.143 0-7.5 3.358-7.5 7.5s3.357 7.5 7.5 7.5h20.086v108.562c0 15.53-12.635 28.164-28.164 28.164h-94.684v-33.88c0-4.142-3.357-7.5-7.5-7.5s-7.5 3.358-7.5 7.5c0 41.813.011 30.66.011 116.64h-76.141l8.168-10.131c1.526-1.897 2.188-4.365 1.814-6.767l-14.369-92.76 3.185-9.554c3.996 1.704 8.735.374 11.219-3.35l22.953-34.429 116.323 25.81-.506 6.576c-.523 6.795 1.505 13.49 5.711 18.854 2.545 3.245 7.258 3.84 10.529 1.273 3.26-2.556 3.83-7.271 1.273-10.53-1.884-2.402-2.793-5.401-2.559-8.445.908-11.812 3.79-49.279 5.442-70.758.318-4.13-2.772-7.735-6.902-8.053-4.145-.318-7.736 2.772-8.053 6.903l-3.775 49.074-111.568-24.755c-.373-1.638-1.195-3.184-2.446-4.436l-12.795-12.795c-1.019-1.019-2.234-1.754-3.534-2.193-.009-.404-.006-.424-.006-12.639 15.586-11.96 26.545-29.739 29.503-50.174 20.433-2.986 36.173-20.626 36.173-41.875 0-13.907-11.314-25.221-25.221-25.221h-6.423l1.251-19.615c1.465-22.95-6.395-44.825-22.129-61.596-15.734-16.769-37.064-26.005-60.06-26.005h-.239c-10.202-.067-30.136 2.058-49.286 16.546-1.67 1.264-2.893 2.912-3.632 4.733-2.172.683-4.168 1.898-5.808 3.581-16.242 16.66-24.708 39.529-23.227 62.743l1.251 19.616h-6.423c-13.907 0-25.221 11.314-25.221 25.221 0 21.248 15.74 38.889 36.173 41.875 2.959 20.435 13.917 38.213 29.504 50.174 0 12.215.003 12.236-.006 12.639-1.3.439-2.515 1.173-3.534 2.193l-12.795 12.795c-1.251 1.251-2.074 2.798-2.447 4.436l-111.565 24.753-8.352-108.577v-25.426c8.646-5.964 13.793-15.745 13.793-26.26v-6.394c0-17.584-14.306-31.89-31.89-31.89h-23.485c-15.765 0-28.591 12.826-28.591 28.591v205.318c0 23.801 19.363 43.164 43.165 43.164h94.672v74.215c0 4.712 3.833 8.545 8.545 8.545h218.796c4.712 0 8.545-3.833 8.545-8.545v-74.214h94.673c23.801 0 43.164-19.363 43.164-43.164v-205.319c0-15.765-12.826-28.591-28.591-28.591zm-147.207 39.46h7.38c5.636 0 10.221 4.585 10.221 10.221 0 12.505-8.445 23.075-19.931 26.305 1.296-20.321.815-12.769 2.33-36.526zm-177.565 10.221c0-5.636 4.585-10.221 10.221-10.221h7.38c1.143 17.908.595 9.332 2.331 36.526-11.487-3.231-19.932-13.8-19.932-26.305zm146.836 126.9-20.967 31.449c-7.659-7.659-5.268-5.268-16.514-16.514l31.449-20.966zm-16.872-16.831-32.381 21.587-32.38-21.587c.315-1.934.474-3.896.474-5.872v-3.126c20.223 9.23 43.549 9.248 63.812 0v3.126c0 1.976.159 3.938.475 5.872zm-18.873 54.715-4.188 12.563h-18.64l-4.188-12.563 13.508-13.508zm-80.729-210.576c-1.184-18.56 5.406-36.85 18.112-50.391l10.955 16.136c1.445 2.168 3.823 3.341 6.247 3.341 1.43 0 2.875-.408 4.153-1.261 3.446-2.297 4.378-6.954 2.08-10.4l-11.801-17.703c15.302-10.281 30.921-11.371 37.178-11.37l.297.001c18.808 0 36.253 7.554 49.123 21.27 12.869 13.717 19.297 31.608 18.1 50.378l-1.936 30.353-13.464-22.44c-2.096-3.492-5.927-5.662-10-5.662h-26.41c-18.558 0-37.14-4.387-53.739-12.687-5.075-2.537-11.268-.472-13.805 4.602l-13.711 27.421zm5.138 80.542-1.864-29.21 23.16-46.318c17.565 8.019 36.892 12.238 56.197 12.238h24.521l23.672 39.454-1.521 23.835c-2.085 32.663-29.354 58.248-62.083 58.248s-59.998-25.585-62.082-58.247zm18.861 86.119 31.449 20.966c-4.961 4.961-11.238 11.238-16.513 16.514l-20.966-31.449zm-197.558-141.959c0-7.494 6.097-13.591 13.591-13.591h23.486c9.313 0 16.89 7.577 16.89 16.89v6.394c0 9.294-7.525 16.89-16.89 16.89h-3.197c-3.47 0-6.293-2.823-6.293-6.293v-13.793c0-4.142-3.358-7.5-7.5-7.5s-7.5 3.358-7.5 7.5v13.793c0 11.741 9.552 21.293 21.293 21.293 2.565-.024 3.97.075 6.293-.149v12.736h-40.173zm248.314 316.243h-15.067l-14-17.364 1.481-9.559c.634-4.093-2.17-7.925-6.264-8.56-4.093-.634-7.926 2.169-8.56 6.264l-1.908 12.317c-.375 2.409.289 4.879 1.819 6.776l8.164 10.126h-76.142v-116.64c0-4.142-3.358-7.5-7.5-7.5s-7.5 3.358-7.5 7.5v33.88h-94.673c-15.53 0-28.165-12.634-28.165-28.164v-108.563h20.086c4.142 0 7.5-3.358 7.5-7.5s-3.358-7.5-7.5-7.5h-20.085v-12.587h40.728c1.905 24.764 7.569 98.4 9.509 123.622.234 3.044-.674 6.043-2.558 8.445-2.556 3.259-1.986 7.974 1.273 10.53 3.245 2.546 7.963 2.001 10.53-1.273 4.206-5.362 6.234-12.058 5.711-18.853l-.506-6.578 116.322-25.81 22.953 34.43c2.504 3.755 7.26 5.037 11.218 3.349l3.184 9.553-7.085 45.739c-.634 4.093 2.17 7.926 6.264 8.56 4.093.627 7.926-2.17 8.56-6.264l6.379-41.183h16.596l13.234 85.443zm233.246-262.074h-40.173v-12.736c1.795.202 4.461.141 6.293.149 11.741 0 21.294-9.552 21.294-21.293v-13.793c0-4.142-3.357-7.5-7.5-7.5s-7.5 3.358-7.5 7.5v13.793c0 3.47-2.823 6.293-6.294 6.293h-3.197c-9.381 0-16.89-7.615-16.89-16.89v-6.394c0-9.313 7.577-16.89 16.89-16.89h23.486c7.494 0 13.591 6.097 13.591 13.591z"/></g></svg>