<svg id="_x33_0" enable-background="new 0 0 62 62.614" height="512" viewBox="0 0 62 62.614" width="512" xmlns="http://www.w3.org/2000/svg"><g><g><g><g><path d="m39 49.614v-.09c0-1.38-.83-2.61-2.1-3.13-.01-.01-.02-.01-.04-.02-1.27-.53-2.72-.24-3.69.73l-.07.07-5.66-5.66.07-.07c.97-.97 1.26-2.42.73-3.69-.01-.02-.01-.03-.02-.04-.52-1.27-1.75-2.1-3.13-2.1h-.09v-4-4h.09c1.37 0 2.61-.82 3.13-2.09l.02-.06c.53-1.26.24-2.72-.73-3.68l-.07-.07 5.07-5.07-.66-1.32c-.56-1.13-.85-2.36-.85-3.62 0-1.49.4-2.89 1.11-4.09h-28.11c-.552 0-1 .448-1 1v45h40v-4z" fill="#e6e9ed"/></g></g><g><path d="m15 30.614v1 5c0 .55-.45 1-1 1h-6c-.55 0-1-.45-1-1v-6c0-.55.45-1 1-1h6c.55 0 1 .45 1 1z" fill="#ff826e"/></g><g><path d="m28 17.614h-20c-.552 0-1-.448-1-1v-4c0-.552.448-1 1-1h20z" fill="#b4dd7f"/></g><g><path d="m15 42.614v6c0 .55-.45 1-1 1h-6c-.55 0-1-.45-1-1v-6c0-.55.45-1 1-1h6c.55 0 1 .45 1 1z" fill="#ff826e"/></g><g><path d="m43 53.654v7.92c-.13.03-.26.04-.39.04h-29.61v-8h29.61c.13 0 .26.01.39.04z" fill="#b4dd7f"/></g><g><path d="m9 53.614h4v8h-4z" fill="#ffeaa7"/></g><g><path d="m3 54.154c.59-.34 1.27-.54 2-.54h4v8h-4c-2.21 0-4-1.79-4-4 0-1.1.45-2.1 1.17-2.83.25-.24.53-.46.83-.63z" fill="#ccd1d9"/></g><g><path d="m52.04 56.334c.57.16.96.69.96 1.28s-.39 1.12-.96 1.28l-8.68 2.58c-.12.04-.24.08-.36.1v-7.92c.12.02.24.06.36.1z" fill="#ccd1d9"/></g><g><path d="m44 37.614 1.63 5.71c-.84.19-1.72.29-2.63.29s-1.79-.1-2.63-.29l1.63-5.71z" fill="#e6e9ed"/></g><g><path d="m43 32.614 1.93 1.29-.93 3.71h-2l-.93-3.71z" fill="#ccd1d9"/></g><g><path d="m52.11 35.594.66 2.99c-1.69 2.36-4.21 4.09-7.14 4.74l-1.63-5.71.93-3.71 1.07.71 1.77-4.42c.81.37 1.54.88 2.17 1.5 1.06 1.04 1.83 2.38 2.17 3.9z" fill="#ff826e"/></g><g><path d="m41.07 33.904.93 3.71-1.63 5.71c-2.93-.65-5.45-2.38-7.14-4.74l.66-2.99c.34-1.52 1.11-2.86 2.17-3.9.63-.62 1.36-1.13 2.17-1.5l1.77 4.42z" fill="#ff826e"/></g><g><path d="m47.77 30.194-1.77 4.42-1.07-.71-1.93-1.29-1.93 1.29-1.07.71-1.77-4.42c.56-.26 1.15-.46 1.77-.58l3 2 3-2c.62.12 1.21.32 1.77.58z" fill="#fc6e51"/></g><g><path d="m53 17.614c1.1 0 2 .9 2 2 0 .55-.22 1.05-.59 1.41-.36.37-.86.59-1.41.59h-2.25c.16-.64.25-1.31.25-2v-2z" fill="#f0d0b4"/></g><g><path d="m51 17.614v2c0 .69-.09 1.36-.25 2-.06.23-.13.45-.21.67-.85 2.42-2.83 4.3-5.31 5.01-.71.21-1.46.32-2.23.32s-1.52-.11-2.23-.32c-1.31-.38-2.49-1.08-3.43-2.02-.83-.84-1.48-1.85-1.88-2.99-.08-.22-.15-.44-.21-.67-.16-.64-.25-1.31-.25-2v-2-2.08c0-2.17 1.75-3.92 3.92-3.92.71 0 1.4.19 2.01.56l4.07 2.44v-1.17c0-.54-.06-1.08-.2-1.6h.01c2.25.74 4.23 2.16 5.66 4.07l.53.7z" fill="#f0d0b4"/></g><g><path d="m45.23 27.304.77 2.31-3 2-3-2 .77-2.31v-.01c.71.21 1.46.32 2.23.32s1.52-.11 2.23-.32z" fill="#f0d0b4"/></g><g><path d="m61 27.614v8h-.09c-1.38 0-2.61.83-3.13 2.1-.01.01-.01.02-.02.04-.53 1.27-.24 2.72.73 3.69l.07.07-5.66 5.66-.07-.07c-.97-.97-2.42-1.26-3.69-.73-.02.01-.03.01-.04.02-1.27.52-2.1 1.75-2.1 3.13v.09h-8v-.09c0-1.38-.83-2.61-2.1-3.13-.01-.01-.02-.01-.04-.02-1.27-.53-2.72-.24-3.69.73l-.07.07-5.66-5.66.07-.07c.97-.97 1.26-2.42.73-3.69-.01-.02-.01-.03-.02-.04-.52-1.27-1.75-2.1-3.13-2.1h-.09v-4-4h.09c1.37 0 2.61-.82 3.13-2.09l.02-.06c.53-1.26.24-2.72-.73-3.68l-.07-.07 5.07-5.07.49.97c-1.1 0-2 .9-2 2 0 .55.22 1.05.59 1.41.36.37.86.59 1.41.59h2.25c.06.23.13.45.21.67-2.72 2.2-4.46 5.56-4.46 9.33 0 2.6.82 5.01 2.23 6.97 1.69 2.36 4.21 4.09 7.14 4.74.84.19 1.72.29 2.63.29s1.79-.1 2.63-.29c2.93-.65 5.45-2.38 7.14-4.74 1.41-1.96 2.23-4.37 2.23-6.97 0-3.77-1.74-7.13-4.46-9.33.08-.22.15-.44.21-.67h2.25c.55 0 1.05-.22 1.41-.59.37-.36.59-.86.59-1.41 0-1.1-.9-2-2-2l.18-1.07c.01-.06.02-.12.03-.18l5.35 5.35-.07.07c-.97.97-1.26 2.42-.73 3.69.01.02.01.03.02.04.52 1.27 1.75 2.1 3.13 2.1z" fill="#fcd770"/></g><g><path d="m51 16.614-.53-.7c-1.43-1.91-3.41-3.33-5.66-4.07h-.01c.14.52.2 1.06.2 1.6v1.17l-4.07-2.44c-.61-.37-1.3-.56-2.01-.56-2.17 0-3.92 1.75-3.92 3.92v2.08h-2l-.49-.97-.66-1.32c-.56-1.13-.85-2.36-.85-3.62 0-1.49.4-2.89 1.11-4.09.34-.6.77-1.14 1.26-1.63 1.46-1.47 3.49-2.37 5.72-2.37h5.52c3.56 0 7.09-.68 10.39-2l-1 5 3 1c-1.93 2.58-3.23 5.58-3.79 8.75-.01.06-.02.12-.03.18l-.18 1.07h-2z" fill="#b27946"/></g><g><path d="m35.25 21.614h-2.25c-.55 0-1.05-.22-1.41-.59-.37-.36-.59-.86-.59-1.41 0-1.1.9-2 2-2h2v2c0 .69.09 1.36.25 2z" fill="#f0d0b4"/></g></g><g><circle cx="47" cy="17.614" r="1"/><circle cx="39" cy="17.614" r="1"/><path d="m45 21.378c-.381.762-1.147 1.236-2 1.236s-1.619-.474-2-1.236l-.105-.211-1.789.895.105.21c.722 1.445 2.174 2.342 3.789 2.342s3.067-.897 3.789-2.342l.105-.211-1.789-.895z"/><path d="m61.906 26.614h-1c-.97 0-1.835-.58-2.222-1.521-.373-.898-.172-1.921.579-2.672l.707-.707-5.674-5.674c.575-2.825 1.773-5.519 3.503-7.827l.833-1.11-3.479-1.16 1.19-5.943-1.714.686c-3.199 1.279-6.568 1.928-10.014 1.928h-5.525c-3.127 0-5.89 1.588-7.527 4h-27.563c-1.103 0-2 .897-2 2v45.026c-1.207.914-2 2.348-2 3.974 0 2.757 2.243 5 5 5h37.615c.384 0 .759-.072 1.026-.184l8.684-2.573c.987-.292 1.675-1.214 1.675-2.243s-.688-1.951-1.675-2.243l-8.596-2.542c-.355-.143-.73-.215-1.114-.215h-37.615c-.342 0-.677.035-1 .101v-44.101h26.552c-.351.967-.552 2.004-.552 3.091 0 1.405.332 2.811.96 4.065l.338.677-4.562 4.561-.641.773.707.707c.684.684.887 1.702.493 2.654-.37.895-1.234 1.472-2.296 1.472h-1v4h-6v2h6v3l.094 1h1c.97 0 1.835.58 2.222 1.521.373.898.172 1.921-.579 2.672l-.707.707 6.364 6.364.773.641.707-.707c.686-.684 1.707-.885 2.649-.495.898.37 1.478 1.234 1.478 2.297v1h9l1-.094v-1c0-.969.58-1.834 1.521-2.222.895-.372 1.92-.172 2.671.579l.707.707 6.364-6.364.641-.773-.707-.707c-.685-.685-.886-1.707-.495-2.649.369-.897 1.234-1.477 2.298-1.477h1v-9zm-17.906 28.377 2 .593v4.065l-2 .594zm-2 5.623h-28v-6h28zm-30 0h-2v-6h2zm40-3c0 .151-.098.282-.243.325l-3.757 1.116v-2.879l3.757 1.113c.145.043.243.174.243.325zm-44-3v6h-3c-1.654 0-3-1.346-3-3s1.346-3 3-3zm41.293-19.707c-.834.833-1.293 1.942-1.293 3.121v3.372c-.537.275-1.095.514-1.678.699l-1.287-4.504.519-2.076.916.611 1.798-4.492c1.425.96 2.475 2.431 2.862 4.171l.561 2.524c-.5.645-1.062 1.24-1.69 1.76v-2.065c0-.645.251-1.251.707-1.707zm-12.586 0-1.414 1.415c.456.455.707 1.061.707 1.706v2.065c-.629-.52-1.19-1.115-1.69-1.76l.561-2.524c.387-1.74 1.437-3.212 2.862-4.172l1.798 4.492.916-.611.519 2.076-1.287 4.504c-.584-.184-1.142-.423-1.679-.698v-3.372c0-1.179-.459-2.288-1.293-3.121zm-3.707-16.293h1v1c0 .338.022.671.059 1h-1.059c-.552 0-1-.449-1-1s.448-1 1-1zm12.999-5.192c1.44.731 2.692 1.78 3.675 3.091l.326.435v2.667c0 3.86-3.141 7-7 7s-7-3.14-7-7v-4.085c0-1.607 1.308-2.916 2.915-2.916.528 0 1.047.144 1.5.416l5.585 3.35v-2.938c0-.006-.001-.013-.001-.02zm-2.779 23.192h-.44l-.568-2.273.788-.525.788.525zm-3.397-5.916 2.124 1.416-1.477.984-.929-2.322c.094-.028.188-.053.282-.078zm5.706 2.401-1.477-.984 2.124-1.416c.095.025.189.05.282.078zm-.719-3.893-1.81 1.207-1.81-1.207.245-.737c.509.09 1.03.145 1.564.145s1.055-.056 1.564-.145zm-5.296-1.295-.286.858c-3.149.853-5.595 3.389-6.311 6.606l-.091.409c-.529-1.287-.826-2.694-.826-4.17 0-2.894 1.124-5.622 3.116-7.667.975 1.767 2.525 3.174 4.398 3.964zm3.241 10.703h.491l1.116 3.907c-.447.056-.9.093-1.362.093s-.914-.038-1.362-.093zm10.419-2.83-.091-.409c-.716-3.216-3.161-5.753-6.311-6.605l-.286-.858c1.873-.79 3.423-2.197 4.398-3.964 1.992 2.044 3.116 4.772 3.116 7.666 0 1.476-.297 2.883-.826 4.17zm-1.233-15.17c.037-.329.059-.662.059-1v-1h1c.552 0 1 .449 1 1s-.448 1-1 1zm-12.851-16h5.525c3.096 0 6.134-.487 9.056-1.451l-.824 4.121 2.565.855c-1.626 2.488-2.732 5.312-3.221 8.243l-.039.232h-.152v-3.171c0-2.091-.814-4.057-2.293-5.536l-1.414 1.414c1.101 1.101 1.707 2.565 1.707 4.122v.416c-1.239-1.213-2.721-2.137-4.357-2.756-.372-1.193-1.027-2.286-1.936-3.195l-1.414 1.414c.955.955 1.537 2.183 1.676 3.508l-2.524-1.514c-.764-.458-1.639-.701-2.529-.701-2.71 0-4.915 2.205-4.915 4.916v1.084h-.382l-.869-1.74c-.491-.979-.75-2.075-.75-3.17 0-3.91 3.181-7.091 7.09-7.091zm20.91 30.094c-1.401.294-2.589 1.265-3.163 2.66-.559 1.346-.413 2.845.38 4.071l-4.384 4.383c-1.197-.783-2.723-.935-4.118-.355-1.347.555-2.304 1.717-2.61 3.146h-6.198c-.295-1.401-1.265-2.588-2.66-3.163-1.348-.56-2.846-.415-4.071.379l-4.384-4.383c.781-1.198.935-2.723.356-4.118-.555-1.347-1.718-2.305-3.147-2.611v-6.198c1.398-.294 2.586-1.265 3.168-2.672.555-1.341.408-2.835-.385-4.059l1.347-1.347c.362 1.25 1.504 2.172 2.869 2.172h.629c-2.319 2.41-3.629 5.607-3.629 9 0 7.168 5.832 13 13 13s13-5.832 13-13c0-3.393-1.31-6.59-3.629-9h.629c1.365 0 2.508-.922 2.869-2.173l1.34 1.34c-.781 1.198-.935 2.723-.356 4.118.555 1.347 1.718 2.305 3.147 2.611z"/><path d="m16 56.614h2v2h-2z"/><path d="m20 56.614h2v2h-2z"/><path d="m24 56.614h2v2h-2z"/><path d="m28 56.614h2v2h-2z"/><path d="m14 40.614h-6c-1.103 0-2 .897-2 2v6c0 1.103.897 2 2 2h6c1.103 0 2-.897 2-2v-5.586l1.707-1.707-1.414-1.414-1.106 1.106c-.333-.247-.741-.399-1.187-.399zm.001 8h-6.001v-6h5.586l-2.586 2.586-1.293-1.293-1.414 1.414 2.707 2.707 3-3z"/><path d="m18 42.614h8v2h-8z"/><path d="m18 46.614h4v2h-4z"/><path d="m24 46.614h2v2h-2z"/><path d="m16.293 27.907-1.106 1.106c-.333-.248-.741-.399-1.187-.399h-6c-1.103 0-2 .897-2 2v6c0 1.103.897 2 2 2h6c1.103 0 2-.897 2-2v-5.586l1.707-1.707zm-2.292 8.707h-6.001v-6h5.586l-2.586 2.586-1.293-1.293-1.414 1.414 2.707 2.707 3-3z"/><path d="m18 34.614h4v2h-4z"/><path d="m6 24.614h16v2h-16z"/><path d="m6 20.614h4v2h-4z"/><path d="m12 20.614h12v2h-12z"/><path d="m28 12.614v-2h-20c-1.103 0-2 .897-2 2v4c0 1.103.897 2 2 2h20v-2h-20v-4z"/></g></g></svg>