<?xml version="1.0" encoding="iso-8859-1"?>
<!-- Generator: Adobe Illustrator 19.0.0, SVG Export Plug-In . SVG Version: 6.00 Build 0)  -->
<svg version="1.1" id="Capa_1" xmlns="http://www.w3.org/2000/svg" xmlns:xlink="http://www.w3.org/1999/xlink" x="0px" y="0px"
	 viewBox="0 0 511.999 511.999" style="enable-background:new 0 0 511.999 511.999;" xml:space="preserve">
<path style="fill:#FF3C63;" d="M290.846,123.951l-13.034-21.097l-121.573,27.774L43.088,400.91l22.056,9.231l160.863,67.353
	l4.192,1.746l100.057-239.035l13.094-31.257L290.846,123.951z M269.229,166.057c-3.513,8.393-13.173,12.355-21.567,8.832
	c-8.413-3.513-12.365-13.173-8.852-21.567c3.513-8.403,13.173-12.365,21.587-8.852C268.79,147.993,272.742,157.653,269.229,166.057z
	"/>
<polygon style="fill:#FF557E;" points="290.846,123.951 176.148,150.947 65.143,410.141 43.088,400.91 156.239,130.628 
	277.812,102.855 "/>
<path style="fill:#EA2F5C;" d="M330.261,240.21L230.197,479.243l-4.186-1.751c-19.447-24.967-31.032-56.358-31.032-90.463
	C194.979,309.729,254.525,246.332,330.261,240.21z"/>
<polygon style="fill:#E0E0E3;" points="292.759,227.536 282.334,252.444 211.48,421.691 197.831,415.974 97.211,373.856 
	178.489,179.7 "/>
<path style="fill:#D1D1D1;" d="M282.334,252.444l-70.853,169.247l-13.649-5.717c-1.879-9.358-2.853-19.041-2.853-28.945
	C194.979,327.031,230.858,275.404,282.334,252.444z"/>
<circle style="fill:#FFCE00;" cx="342.284" cy="387.034" r="117.468"/>
<circle style="fill:#FFDA2D;" cx="342.284" cy="387.034" r="80.029"/>
<circle style="fill:#FFE571;" cx="342.284" cy="387.034" r="60.349"/>
<path d="M63.571,351.986c0.946,0.396,1.927,0.583,2.893,0.583c2.933,0,5.718-1.731,6.921-4.606l88.284-210.888l76.021-17.364
	c0.398,9.229,0.975,16.712,1.374,21.224c-3.119,2.48-5.587,5.71-7.168,9.486c-2.475,5.912-2.5,12.432-0.071,18.36
	c2.429,5.927,7.023,10.555,12.935,13.03c3.018,1.263,6.148,1.861,9.231,1.86c9.384,0,18.314-5.541,22.159-14.725
	c2.472-5.906,2.497-12.424,0.069-18.353c-2.429-5.932-7.022-10.562-12.933-13.036c-3.089-1.293-6.344-1.91-9.595-1.864
	c-0.377-4.86-0.816-11.572-1.111-19.383l21.672-4.95l12.662,20.499c0.007,0.012,0.014,0.023,0.021,0.034l26.21,42.432
	c2.176,3.523,6.796,4.616,10.322,2.439c3.524-2.177,4.616-6.798,2.439-10.322l-23.836-38.589
	c29.165-52.097,23.307-95.545,4.087-115.875C294.74-0.098,279.345-3.319,265.98,3.576c-17.383,8.967-26.688,35.278-28.449,80.439
	c-0.274,7.031-0.333,13.924-0.26,20.407l-82.701,18.889c-2.359,0.539-4.314,2.183-5.249,4.416L59.549,342.172
	C57.95,345.992,59.751,350.386,63.571,351.986z M262.336,156.279c0.91,2.222,0.901,4.664-0.024,6.875
	c-1.915,4.571-7.19,6.731-11.76,4.82l0,0c-2.216-0.927-3.938-2.661-4.847-4.881c-0.91-2.22-0.9-4.663,0.028-6.879
	c0.926-2.212,2.659-3.932,4.881-4.843c1.102-0.452,2.257-0.678,3.412-0.678c1.175,0,2.351,0.234,3.467,0.702
	C259.706,152.322,261.426,154.056,262.336,156.279z M252.525,84.444c1.481-37.552,8.702-61.538,20.332-67.537
	c7.398-3.817,15.563-1.856,22.4,5.376c7.766,8.215,12.178,21.816,12.104,37.317c-0.077,16.441-5.046,34.733-14.425,53.467
	l-8.743-14.154c-1.687-2.73-4.924-4.085-8.051-3.37l-23.892,5.457C252.227,95.653,252.303,90.078,252.525,84.444z"/>
<path d="M204.483,293.883l-11.3-4.731c-2.106-0.882-3.744-2.531-4.61-4.645c-0.866-2.113-0.857-4.438,0.025-6.545
	c0.882-2.107,2.531-3.744,4.645-4.61c2.113-0.865,4.438-0.857,6.545,0.025l5.649,2.365h0.001h0.001l12.663,5.301
	c0.24,0.101,0.412,0.274,0.511,0.515c0.099,0.241,0.098,0.485-0.002,0.725c-1.6,3.821,0.201,8.215,4.021,9.814
	c3.821,1.6,8.215-0.2,9.814-4.021c1.646-3.93,1.662-8.265,0.046-12.207s-4.67-7.019-8.599-8.663l-5.745-2.405l4.497-10.744
	c1.599-3.821-0.202-8.215-4.022-9.814c-3.819-1.598-8.214,0.201-9.814,4.022l-4.523,10.805c-5.453-1.924-11.338-1.809-16.731,0.401
	c-5.821,2.386-10.364,6.896-12.793,12.698c-2.43,5.803-2.454,12.205-0.068,18.025c2.386,5.821,6.895,10.365,12.698,12.793
	l11.299,4.73c2.107,0.882,3.745,2.532,4.611,4.646c0.866,2.113,0.857,4.438-0.024,6.544c-1.821,4.351-6.84,6.407-11.19,4.586
	l-5.648-2.364c-0.001,0-0.001-0.001-0.001-0.001c-0.001,0-0.002-0.001-0.002-0.001l-12.662-5.3
	c-0.241-0.101-0.413-0.274-0.511-0.515c-0.098-0.241-0.098-0.485,0.002-0.726c1.6-3.821-0.201-8.215-4.021-9.814
	c-3.818-1.601-8.215,0.2-9.814,4.021c-1.645,3.93-1.662,8.264-0.046,12.206c1.616,3.942,4.669,7.019,8.599,8.664l5.745,2.405
	l-4.497,10.743c-1.599,3.821,0.202,8.215,4.022,9.814c0.946,0.396,1.927,0.583,2.893,0.583c2.933,0,5.718-1.731,6.921-4.606
	l4.514-10.783c2.561,0.902,5.186,1.336,7.778,1.336c9.213,0,17.981-5.44,21.756-14.457
	C222.127,312.723,216.462,298.898,204.483,293.883z"/>
<path d="M342.287,262.064c-4.508,0-8.96,0.246-13.346,0.714l21.322-50.927c0.935-2.232,0.735-4.778-0.537-6.837l-8.56-13.86
	c-2.177-3.524-6.798-4.617-10.322-2.44c-3.524,2.177-4.617,6.798-2.44,10.322l6.534,10.58l-23.583,56.326
	c-11.389,2.911-22.155,7.394-32.057,13.198l20.386-48.698c1.599-3.821-0.201-8.215-4.022-9.814l-114.268-47.839
	c-1.835-0.769-3.899-0.776-5.74-0.022c-1.841,0.754-3.306,2.209-4.075,4.043L90.301,370.956c-1.6,3.821,0.201,8.215,4.021,9.814
	L208.59,428.61c0.946,0.396,1.928,0.584,2.894,0.584c2.933,0,5.717-1.731,6.921-4.605l2.784-6.65
	c2.902,11.363,7.368,22.106,13.149,31.989l-8.164,19.499L52.904,396.9l10.003-23.892c1.6-3.821-0.201-8.215-4.021-9.814
	c-3.818-1.601-8.215,0.201-9.814,4.021l-12.9,30.81c-0.769,1.835-0.776,3.9-0.022,5.74c0.754,1.841,2.209,3.307,4.044,4.075
	l187.107,78.319c0.946,0.396,1.927,0.583,2.893,0.583c2.932,0,5.718-1.731,6.921-4.605l7.315-17.473
	c22.913,28.822,58.261,47.335,97.856,47.335c68.908,0,124.968-56.06,124.968-124.968S411.194,262.064,342.287,262.064z
	 M207.465,411.877L107.033,369.83l75.487-180.31l100.432,42.046l-27.497,65.684c-23.501,22.736-38.136,54.579-38.136,89.782
	c0,0.427,0.012,0.85,0.016,1.276L207.465,411.877z M342.287,497c-59.697,0-108.436-47.814-109.933-107.157
	c0.001-0.087-0.001-0.173-0.003-0.26c-0.019-0.848-0.032-1.698-0.032-2.551c0-60.637,49.332-109.968,109.968-109.968
	s109.968,49.331,109.968,109.968S402.923,497,342.287,497z"/>
<path d="M342.287,299.499c-48.266,0-87.534,39.267-87.534,87.534s39.267,87.533,87.534,87.533c24.249,0,46.798-9.689,63.497-27.282
	c2.852-3.004,2.728-7.751-0.277-10.603c-3.004-2.851-7.751-2.728-10.603,0.277c-13.838,14.579-32.523,22.608-52.617,22.608
	c-39.995,0-72.534-32.538-72.534-72.533s32.538-72.534,72.534-72.534s72.533,32.538,72.533,72.534
	c0,10.643-2.25,20.892-6.687,30.463c-1.742,3.758-0.107,8.217,3.65,9.959c3.757,1.741,8.216,0.106,9.959-3.65
	c5.359-11.563,8.077-23.935,8.077-36.771C429.82,338.766,390.552,299.499,342.287,299.499z"/>
<path d="M337.59,368.728h16.396c0.193,3.971,3.473,7.13,7.491,7.13c4.142,0,7.5-3.358,7.5-7.5c0-8.067-6.563-14.63-14.631-14.63
	h-4.087v-8.661c0-4.142-3.358-7.5-7.5-7.5c-4.142,0-7.5,3.358-7.5,7.5v8.797c-10.512,1.164-18.718,10.094-18.718,20.911
	c0,11.606,9.442,21.048,21.048,21.048h10.339c3.335,0,6.048,2.713,6.048,6.048s-2.713,6.048-6.048,6.048h-16.394
	c-0.193-3.971-3.473-7.13-7.491-7.13c-4.142,0-7.5,3.358-7.5,7.5c0,8.067,6.563,14.63,14.63,14.63h4.087v8.661
	c0,4.142,3.358,7.5,7.5,7.5c4.142,0,7.5-3.358,7.5-7.5v-8.797c10.512-1.164,18.718-10.094,18.718-20.911
	c0-11.606-9.442-21.048-21.048-21.048h-10.339c-3.335,0-6.048-2.713-6.048-6.048S334.255,368.728,337.59,368.728z"/>
<path d="M392.518,170.594h28.288c4.142,0,7.5-3.358,7.5-7.5c0-4.142-3.358-7.5-7.5-7.5h-28.288c-4.142,0-7.5,3.358-7.5,7.5
	C385.018,167.236,388.376,170.594,392.518,170.594z"/>
<path d="M468.909,210.873H440.62c-4.142,0-7.5,3.358-7.5,7.5c0,4.142,3.358,7.5,7.5,7.5h28.289c4.142,0,7.5-3.358,7.5-7.5
	C476.409,214.231,473.051,210.873,468.909,210.873z"/>
<path d="M97.212,123.233h28.288c4.142,0,7.5-3.358,7.5-7.5c0-4.142-3.358-7.5-7.5-7.5H97.212c-4.142,0-7.5,3.358-7.5,7.5
	C89.712,119.875,93.069,123.233,97.212,123.233z"/>
<path d="M169.397,48.541h28.288c4.142,0,7.5-3.358,7.5-7.5s-3.358-7.5-7.5-7.5h-28.288c-4.142,0-7.5,3.358-7.5,7.5
	S165.255,48.541,169.397,48.541z"/>
<g>
</g>
<g>
</g>
<g>
</g>
<g>
</g>
<g>
</g>
<g>
</g>
<g>
</g>
<g>
</g>
<g>
</g>
<g>
</g>
<g>
</g>
<g>
</g>
<g>
</g>
<g>
</g>
<g>
</g>
</svg>
