<svg enable-background="new 0 0 256 256" height="512" viewBox="0 0 256 256" width="512" xmlns="http://www.w3.org/2000/svg"><g id="Layer_22"><g><g><path d="m242.649 110.76v-2.712c0-7.159-5.857-13.017-13.017-13.017h-203.268c-7.159 0-13.017 5.857-13.017 13.017v2.712z" fill="#3a70bf"/></g><g><path d="m177.761 95.032v-44.855c0-4.276-3.499-7.775-7.775-7.775h-4.871v52.63z" fill="#5290db"/></g><g><path d="m165.115 95.032v-59.897c0-2.379-1.946-4.325-4.325-4.325h-92.293c-2.379 0-4.325 1.946-4.325 4.325v59.897z" fill="#edf4fc"/></g><g><path d="m64.171 95.032v-52.63h-4.871c-4.276 0-7.775 3.499-7.775 7.775v44.854h12.646z" fill="#5290db"/></g><g><path d="m246.622 110.76h-237.248c-3.781 0-6.874 3.093-6.874 6.874v90.384c0 3.781 3.093 6.874 6.874 6.874h54.797v-51.524h100.943v51.524h81.508c3.781 0 6.874-3.093 6.874-6.874v-90.384c0-3.781-3.093-6.874-6.874-6.874z" fill="#29589f"/></g><g><path d="m229.633 95.032h-22.821v15.728h35.838v-2.712c-.001-7.159-5.858-13.016-13.017-13.016z" fill="#5290db"/></g><g><path d="m44.218 110.76h-34.844c-3.781 0-6.874 3.093-6.874 6.874v6.685h41.718z" fill="#3a70bf"/></g><g><path d="m176.384 147.546h-123.004c-2.699 0-5.118-1.174-6.795-3.032v70.378h17.586v-51.524h100.943v51.524h18.065v-70.378c-1.676 1.858-4.095 3.032-6.795 3.032z" fill="#173f7f"/></g><g><path d="m64.171 163.368v56.806c0 2.77 2.246 5.016 5.016 5.016h90.911c2.77 0 5.016-2.246 5.016-5.016v-56.806z" fill="#edf4fc"/></g><g><path d="m176.384 147.546h-123.004c-2.699 0-5.118-1.174-6.795-3.032v18.854h136.594v-18.854c-1.676 1.858-4.095 3.032-6.795 3.032z" fill="#29589f"/></g><g><path d="m44.218 110.76v27.625c0 5.06 4.102 9.162 9.162 9.162h123.004c5.06 0 9.162-4.102 9.162-9.162v-27.625z" fill="#5290db"/></g><g><path d="m117.515 122.296h-6.893c-3.475 0-6.318 2.843-6.318 6.318s2.843 6.318 6.318 6.318h6.893c3.475 0 6.318-2.843 6.318-6.318 0-3.474-2.843-6.318-6.318-6.318z" fill="#f5c84c"/></g><g><path d="m246.622 110.76h-61.076v13.559h67.95v-6.685c0-3.781-3.093-6.874-6.874-6.874z" fill="#3a70bf"/></g><g><path d="m206.923 149.853h-5.947c-2.401 0-4.366 1.965-4.366 4.366v42.161c0 2.401 1.965 4.366 4.366 4.366h5.947c2.401 0 4.366-1.965 4.366-4.366v-42.16c0-2.402-1.965-4.367-4.366-4.367z" fill="#f5c84c"/></g><g><path d="m221.603 149.853h-5.947c-2.401 0-4.366 1.965-4.366 4.366v42.161c0 2.401 1.965 4.366 4.366 4.366h5.947c2.401 0 4.366-1.965 4.366-4.366v-42.16c0-2.402-1.965-4.367-4.366-4.367z" fill="#ef4460"/></g><g><path d="m236.282 149.853h-5.947c-2.401 0-4.366 1.965-4.366 4.366v42.161c0 2.401 1.965 4.366 4.366 4.366h5.947c2.401 0 4.366-1.965 4.366-4.366v-42.16c0-2.402-1.964-4.367-4.366-4.367z" fill="#70d6f9"/></g><g><path d="m211.289 163.368v-9.149c0-2.401-1.965-4.366-4.366-4.366h-5.947c-2.401 0-4.366 1.965-4.366 4.366v9.149z" fill="#5290db"/></g><g><path d="m225.969 163.368v-9.149c0-2.401-1.965-4.366-4.366-4.366h-5.947c-2.401 0-4.366 1.965-4.366 4.366v9.149z" fill="#5290db"/></g><g><path d="m240.648 163.368v-9.149c0-2.401-1.965-4.366-4.366-4.366h-5.947c-2.401 0-4.366 1.965-4.366 4.366v9.149z" fill="#5290db"/></g><g><path d="m41.145 48.059c-3.637-.677-6.503-3.485-7.194-7.048-.035-.179-.284-.179-.319 0-.691 3.563-3.558 6.371-7.195 7.048-.183.034-.183.279 0 .313 3.637.677 6.503 3.485 7.195 7.048.035.179.284.179.319 0 .691-3.563 3.558-6.371 7.194-7.048.183-.034.183-.278 0-.313z" fill="#f5c84c"/></g><g><path d="m203.97 56.091h-2.226v-2.226c0-1.667-1.351-3.017-3.017-3.017s-3.017 1.351-3.017 3.017v2.226h-2.226c-1.667 0-3.017 1.351-3.017 3.017s1.351 3.017 3.017 3.017h2.226v2.226c0 1.667 1.351 3.017 3.017 3.017s3.017-1.351 3.017-3.017v-2.226h2.226c1.667 0 3.017-1.351 3.017-3.017s-1.351-3.017-3.017-3.017z" fill="#3caadc"/></g><g><circle cx="21.667" cy="70.554" fill="#ef4460" r="3.227"/></g><g><circle cx="215.177" cy="79.383" fill="#87d147" r="3.227"/></g><g><circle cx="227.624" cy="34.784" fill="#3a70bf" r="3.227"/></g><g><path d="m242.649 113.26h-229.302c-1.381 0-2.5-1.119-2.5-2.5v-2.712c0-8.556 6.961-15.516 15.517-15.516h203.269c8.556 0 15.517 6.96 15.517 15.516v2.712c-.001 1.381-1.12 2.5-2.501 2.5zm-226.802-5h224.302v-.212c0-5.799-4.718-10.516-10.517-10.516h-203.268c-5.799 0-10.517 4.717-10.517 10.516z"/></g><g><path d="m177.761 97.532h-12.646c-1.381 0-2.5-1.119-2.5-2.5v-52.63c0-1.381 1.119-2.5 2.5-2.5h4.871c5.666 0 10.275 4.609 10.275 10.275v44.854c0 1.382-1.119 2.501-2.5 2.501zm-10.146-5h7.646v-42.355c0-2.909-2.367-5.275-5.275-5.275h-2.371z"/></g><g><path d="m165.115 97.532h-100.944c-1.381 0-2.5-1.119-2.5-2.5v-59.897c0-3.763 3.062-6.825 6.825-6.825h92.293c3.763 0 6.825 3.062 6.825 6.825v59.897c.001 1.381-1.118 2.5-2.499 2.5zm-98.444-5h95.943v-57.397c0-1.006-.819-1.825-1.825-1.825h-92.292c-1.006 0-1.825.819-1.825 1.825v57.397z"/></g><g><path d="m64.171 97.532h-12.646c-1.381 0-2.5-1.119-2.5-2.5v-44.855c0-5.666 4.609-10.275 10.275-10.275h4.871c1.381 0 2.5 1.119 2.5 2.5v52.63c0 1.381-1.119 2.5-2.5 2.5zm-10.146-5h7.646v-47.63h-2.371c-2.909 0-5.275 2.367-5.275 5.275z"/></g><g><path d="m149.037 177.8h-67.29c-1.381 0-2.5-1.119-2.5-2.5s1.119-2.5 2.5-2.5h67.29c1.381 0 2.5 1.119 2.5 2.5s-1.12 2.5-2.5 2.5z"/></g><g><path d="m149.037 188.647h-67.29c-1.381 0-2.5-1.119-2.5-2.5s1.119-2.5 2.5-2.5h67.29c1.381 0 2.5 1.119 2.5 2.5s-1.12 2.5-2.5 2.5z"/></g><g><path d="m149.037 199.495h-67.29c-1.381 0-2.5-1.119-2.5-2.5s1.119-2.5 2.5-2.5h67.29c1.381 0 2.5 1.119 2.5 2.5s-1.12 2.5-2.5 2.5z"/></g><g><path d="m149.037 210.342h-7.546c-1.381 0-2.5-1.119-2.5-2.5s1.119-2.5 2.5-2.5h7.546c1.381 0 2.5 1.119 2.5 2.5s-1.12 2.5-2.5 2.5z"/></g><g><path d="m246.623 217.392h-81.508c-1.381 0-2.5-1.119-2.5-2.5v-49.023h-95.944v49.023c0 1.381-1.119 2.5-2.5 2.5h-54.797c-5.169 0-9.374-4.205-9.374-9.374v-90.384c0-5.169 4.205-9.374 9.374-9.374h237.249c5.169 0 9.374 4.205 9.374 9.374v90.384c0 5.169-4.205 9.374-9.374 9.374zm-79.008-5h79.008c2.412 0 4.374-1.962 4.374-4.374v-90.384c0-2.412-1.962-4.374-4.374-4.374h-237.249c-2.412 0-4.374 1.962-4.374 4.374v90.384c0 2.412 1.962 4.374 4.374 4.374h52.297v-49.023c0-1.381 1.119-2.5 2.5-2.5h100.943c1.381 0 2.5 1.119 2.5 2.5v49.023z"/></g><g><path d="m242.649 113.26h-35.838c-1.381 0-2.5-1.119-2.5-2.5v-15.728c0-1.381 1.119-2.5 2.5-2.5h22.821c8.556 0 15.517 6.96 15.517 15.516v2.712c0 1.381-1.119 2.5-2.5 2.5zm-33.337-5h30.838v-.212c0-5.799-4.718-10.516-10.517-10.516h-20.321z"/></g><g><path d="m44.218 126.819h-41.718c-1.381 0-2.5-1.119-2.5-2.5v-6.685c0-5.169 4.205-9.374 9.374-9.374h34.844c1.381 0 2.5 1.119 2.5 2.5v13.559c0 1.381-1.119 2.5-2.5 2.5zm-39.218-5h36.718v-8.559h-32.344c-2.412 0-4.374 1.962-4.374 4.374z"/></g><g><path d="m183.18 217.392h-18.065c-1.381 0-2.5-1.119-2.5-2.5v-49.023h-95.944v49.023c0 1.381-1.119 2.5-2.5 2.5h-17.586c-1.381 0-2.5-1.119-2.5-2.5v-70.378c0-1.035.637-1.962 1.603-2.333.965-.372 2.06-.11 2.753.658 1.267 1.403 3.066 2.207 4.939 2.207h123.004c1.873 0 3.673-.804 4.94-2.207.693-.769 1.788-1.028 2.753-.658.965.372 1.603 1.299 1.603 2.333v70.378c0 1.381-1.119 2.5-2.5 2.5zm-15.565-5h13.065v-63.173c-1.355.54-2.812.827-4.295.827h-123.005c-1.483 0-2.94-.287-4.295-.827v63.173h12.586v-49.023c0-1.381 1.119-2.5 2.5-2.5h100.943c1.381 0 2.5 1.119 2.5 2.5v49.023z"/></g><g><path d="m160.099 227.69h-90.912c-4.145 0-7.516-3.372-7.516-7.516v-56.806c0-1.381 1.119-2.5 2.5-2.5h100.943c1.381 0 2.5 1.119 2.5 2.5v56.806c.001 4.145-3.371 7.516-7.515 7.516zm-93.428-61.821v54.306c0 1.387 1.129 2.516 2.516 2.516h90.911c1.387 0 2.516-1.129 2.516-2.516v-54.306z"/></g><g><path d="m183.18 165.869h-136.595c-1.381 0-2.5-1.119-2.5-2.5v-18.854c0-1.035.637-1.962 1.603-2.333.965-.372 2.06-.11 2.753.658 1.267 1.403 3.066 2.207 4.939 2.207h123.004c1.873 0 3.673-.804 4.94-2.207.693-.768 1.787-1.029 2.753-.658.965.372 1.603 1.299 1.603 2.333v18.854c0 1.381-1.119 2.5-2.5 2.5zm-134.095-5h131.595v-11.649c-1.355.54-2.812.827-4.295.827h-123.005c-1.483 0-2.94-.287-4.295-.827z"/></g><g><path d="m176.384 150.046h-123.004c-6.43 0-11.662-5.231-11.662-11.662v-27.624c0-1.381 1.119-2.5 2.5-2.5h141.328c1.381 0 2.5 1.119 2.5 2.5v27.625c0 6.429-5.231 11.661-11.662 11.661zm-129.666-36.786v25.125c0 3.673 2.988 6.662 6.662 6.662h123.004c3.673 0 6.662-2.988 6.662-6.662v-25.125z"/></g><g><path d="m117.515 137.433h-6.893c-4.862 0-8.818-3.956-8.818-8.818s3.956-8.818 8.818-8.818h6.893c4.862 0 8.818 3.956 8.818 8.818s-3.956 8.818-8.818 8.818zm-6.892-12.637c-2.105 0-3.818 1.713-3.818 3.818s1.713 3.818 3.818 3.818h6.893c2.105 0 3.818-1.713 3.818-3.818s-1.713-3.818-3.818-3.818z"/></g><g><path d="m253.497 126.819h-67.95c-1.381 0-2.5-1.119-2.5-2.5v-13.559c0-1.381 1.119-2.5 2.5-2.5h61.076c5.169 0 9.374 4.205 9.374 9.374v6.685c0 1.381-1.12 2.5-2.5 2.5zm-65.451-5h62.95v-4.185c0-2.412-1.962-4.374-4.374-4.374h-58.576z"/></g><g><path d="m206.923 203.247h-5.947c-3.786 0-6.866-3.08-6.866-6.866v-42.161c0-3.786 3.08-6.866 6.866-6.866h5.947c3.786 0 6.866 3.08 6.866 6.866v42.161c0 3.786-3.08 6.866-6.866 6.866zm-5.947-50.893c-1.029 0-1.866.837-1.866 1.866v42.161c0 1.029.837 1.866 1.866 1.866h5.947c1.029 0 1.866-.837 1.866-1.866v-42.161c0-1.029-.837-1.866-1.866-1.866z"/></g><g><path d="m221.603 203.247h-5.947c-3.786 0-6.866-3.08-6.866-6.866v-42.161c0-3.786 3.08-6.866 6.866-6.866h5.947c3.786 0 6.866 3.08 6.866 6.866v42.161c0 3.786-3.08 6.866-6.866 6.866zm-5.948-50.893c-1.029 0-1.866.837-1.866 1.866v42.161c0 1.029.837 1.866 1.866 1.866h5.947c1.029 0 1.866-.837 1.866-1.866v-42.161c0-1.029-.837-1.866-1.866-1.866z"/></g><g><path d="m236.282 203.247h-5.947c-3.786 0-6.866-3.08-6.866-6.866v-42.161c0-3.786 3.08-6.866 6.866-6.866h5.947c3.786 0 6.866 3.08 6.866 6.866v42.161c0 3.786-3.08 6.866-6.866 6.866zm-5.947-50.893c-1.029 0-1.866.837-1.866 1.866v42.161c0 1.029.837 1.866 1.866 1.866h5.947c1.029 0 1.866-.837 1.866-1.866v-42.161c0-1.029-.837-1.866-1.866-1.866z"/></g><g><path d="m211.289 165.869h-14.68c-1.381 0-2.5-1.119-2.5-2.5v-9.149c0-3.786 3.08-6.866 6.866-6.866h5.947c3.786 0 6.866 3.08 6.866 6.866v9.149c.001 1.381-1.118 2.5-2.499 2.5zm-12.18-5h9.68v-6.649c0-1.029-.837-1.866-1.866-1.866h-5.947c-1.029 0-1.866.837-1.866 1.866v6.649z"/></g><g><path d="m225.969 165.869h-14.68c-1.381 0-2.5-1.119-2.5-2.5v-9.149c0-3.786 3.08-6.866 6.866-6.866h5.947c3.786 0 6.866 3.08 6.866 6.866v9.149c.001 1.381-1.118 2.5-2.499 2.5zm-12.18-5h9.68v-6.649c0-1.029-.837-1.866-1.866-1.866h-5.947c-1.029 0-1.866.837-1.866 1.866v6.649z"/></g><g><path d="m240.648 165.869h-14.68c-1.381 0-2.5-1.119-2.5-2.5v-9.149c0-3.786 3.08-6.866 6.866-6.866h5.947c3.786 0 6.866 3.08 6.866 6.866v9.149c.001 1.381-1.118 2.5-2.499 2.5zm-12.179-5h9.68v-6.649c0-1.029-.837-1.866-1.866-1.866h-5.947c-1.029 0-1.866.837-1.866 1.866v6.649z"/></g></g></g></svg>