<?xml version="1.0"?>
<svg xmlns="http://www.w3.org/2000/svg" xmlns:xlink="http://www.w3.org/1999/xlink" xmlns:svgjs="http://svgjs.com/svgjs" version="1.1" width="512" height="512" x="0" y="0" viewBox="0 0 511.997 511.997" style="enable-background:new 0 0 512 512" xml:space="preserve" class=""><g>
<g xmlns="http://www.w3.org/2000/svg">
	<g>
		<path style="" d="M281.674,181.553c-2.864-6.117-9.028-10.004-15.782-10.004h-19.787    c-6.754,0-12.918,3.887-15.782,10.004c-7.764,16.582-12.643,40.574-12.643,67.262c0,9.767,0.656,19.17,1.865,27.984h72.908    c1.209-8.814,1.865-18.217,1.865-27.984C294.317,222.127,289.438,198.135,281.674,181.553z" fill="#efedee" data-original="#efedee"/>
		<path style="" d="M253.323,181.553c2.635-5.628,8.064-9.359,14.176-9.921c-0.531-0.049-1.066-0.083-1.607-0.083    h-19.787c-6.755,0-12.918,3.887-15.782,10.004c-7.764,16.583-12.643,40.574-12.643,67.262c0,9.767,0.656,19.17,1.865,27.984h23    c-1.209-8.814-1.865-18.217-1.865-27.984C240.679,222.127,245.559,198.135,253.323,181.553z" fill="#d2d2d2" data-original="#d2d2d2"/>
		<path style="" d="M326.14,441.327c-16.822-15.598-54.421-23.788-54.421-37.899V276.253h-31.441v127.175    c0,14.111-37.599,22.3-54.421,37.899c-6.024,5.586-2.127,15.65,6.088,15.65h128.107    C328.267,456.977,332.164,446.913,326.14,441.327z" fill="#1c8edd" data-original="#c86d5c" class=""/>
		<path style="" d="M49.337,364.127v84.575c0,4.57,3.705,8.275,8.275,8.275h13.797c4.57,0,8.275-3.705,8.275-8.275    v-84.575H49.337z" fill="#1c8edd" data-original="#c86d5c" class=""/>
		<path style="" d="M127.07,364.127v84.575c0,4.57,3.705,8.275,8.275,8.275h13.797c4.57,0,8.275-3.705,8.275-8.275    v-84.575H127.07z" fill="#1c8edd" data-original="#c86d5c" class=""/>
		<path style="" d="M462.659,364.127v84.575c0,4.57-3.705,8.275-8.275,8.275h-13.797c-4.57,0-8.275-3.705-8.275-8.275    v-84.575H462.659z" fill="#1c8edd" data-original="#c86d5c" class=""/>
		<path style="" d="M384.926,364.127v84.575c0,4.57-3.705,8.275-8.275,8.275h-13.797c-4.57,0-8.275-3.705-8.275-8.275    v-84.575H384.926z" fill="#1c8edd" data-original="#c86d5c" class=""/>
		<path style="" d="M240.278,338.929c4.26-1.25,8.403-2.912,12.345-4.98c1.037-0.544,2.205-0.832,3.376-0.832    c1.171,0,2.338,0.288,3.375,0.832c3.942,2.069,8.085,3.731,12.346,4.981v-62.676h-31.441V338.929z" fill="#135c8f" data-original="#ad4f3d" class=""/>
		<path style="" d="M384.443,240.818h-256.89c-15.138,0-27.41,12.272-27.41,27.41v23.035    c0,7.209,6.246,12.812,13.415,12.058c7.251-0.763,14.675,0.607,21.306,4.109c10.835,5.722,23.699,5.648,34.549-0.046    c10.843-5.691,23.79-5.691,34.633,0c10.88,5.71,23.755,5.71,34.636,0c10.843-5.691,23.79-5.691,34.634,0    c10.88,5.71,23.755,5.71,34.636,0c10.843-5.691,23.79-5.691,34.633,0c10.849,5.694,23.714,5.768,34.549,0.046    c6.631-3.502,14.055-4.872,21.306-4.109c7.169,0.754,13.415-4.849,13.415-12.058v-23.035    C411.854,253.09,399.582,240.818,384.443,240.818z" fill="#32b7c3" data-original="#fd6f71" class=""/>
		<rect x="127.07" y="364.127" style="" width="30.346" height="46.867" fill="#135c8f" data-original="#ad4f3d" class=""/>
		<polygon style="" points="49.337,410.994 49.337,410.994 79.683,410.994 79.683,364.127 49.337,364.127   " fill="#135c8f" data-original="#ad4f3d" class=""/>
		<path style="" d="M150.3,336.78H69.172L51.517,174.37c-0.642-5.91-5.954-10.18-11.864-9.537l-22.554,2.452    c-5.91,0.642-10.18,5.954-9.537,11.864L27.36,361.276c1.22,11.219,10.693,19.718,21.978,19.718h123.8v-21.377    C173.137,347.004,162.913,336.78,150.3,336.78z" fill="#32b7c3" data-original="#fd6f71" class=""/>
		<polygon style="" points="432.313,410.994 462.659,410.994 462.659,410.994 462.659,364.127 432.313,364.127   " fill="#135c8f" data-original="#ad4f3d" class=""/>
		<rect x="354.58" y="364.127" style="" width="30.346" height="46.867" fill="#135c8f" data-original="#ad4f3d" class=""/>
		<path style="" d="M361.697,336.78h81.128l17.654-162.409c0.642-5.91,5.954-10.18,11.864-9.537l22.554,2.452    c5.91,0.642,10.18,5.954,9.537,11.864l-19.797,182.127c-1.22,11.219-10.693,19.718-21.978,19.718h-123.8v-21.377    C338.859,347.004,349.084,336.78,361.697,336.78z" fill="#32b7c3" data-original="#fd6f71" class=""/>
		<path style="" d="M250.767,76.325c0.222-17.402-19.606-27.505-33.554-17.096l0,0l0,0    c-16.481-5.589-32.217,10.147-26.628,26.628l0,0l0,0c-10.409,13.948-0.305,33.776,17.096,33.554l0,0    c10.049,14.209,32.029,10.728,37.195-5.891C261.495,108.354,264.976,86.374,250.767,76.325L250.767,76.325z" fill="#f2c42c" data-original="#f2c42c" class=""/>
	</g>
	<g>
		<path d="M185.395,257.561c-4.142,0-7.5,3.358-7.5,7.5v12.778c0,4.142,3.358,7.5,7.5,7.5s7.5-3.358,7.5-7.5v-12.778    C192.895,260.919,189.537,257.561,185.395,257.561z" fill="#000000" data-original="#000000" class=""/>
		<path d="M326.598,285.339c4.142,0,7.5-3.358,7.5-7.5v-12.778c0-4.142-3.358-7.5-7.5-7.5s-7.5,3.358-7.5,7.5v12.778    C319.098,281.981,322.456,285.339,326.598,285.339z" fill="#000000" data-original="#000000" class=""/>
		<path d="M278.358,271.303c-3.119-2.726-7.857-2.408-10.583,0.711c-2.858,3.271-7.151,5.146-11.779,5.146    c-4.627,0-8.92-1.875-11.778-5.146c-2.726-3.119-7.464-3.437-10.583-0.711c-3.119,2.726-3.437,7.464-0.711,10.583    c5.707,6.529,14.117,10.274,23.072,10.274c8.956,0,17.366-3.745,23.073-10.274C281.795,278.767,281.477,274.029,278.358,271.303z" fill="#000000" data-original="#000000" class=""/>
		<circle cx="221.116" cy="90.981" r="11.539" fill="#000000" data-original="#000000" class=""/>
		<path d="M223.528,178.373c-6.843,14.617-11.308,33.917-12.788,54.945h-83.189c-19.25,0-34.911,15.661-34.911,34.911v23.035    c0,10.822,8.802,19.626,19.622,19.626c6.842,0,12.804-0.15,19.097,3.173c12.9,6.813,28.636,6.733,41.537-0.037    c8.587-4.506,19.077-4.505,27.663,0c6.41,3.363,13.603,5.141,20.803,5.141c3.848,0,7.689-0.523,11.415-1.509v85.771    c0,0.016-0.132,1.663-4.866,4.965c-4.432,3.092-10.788,6.201-17.518,9.492c-10.702,5.234-21.769,10.646-29.638,17.943    c-5.034,4.668-6.669,11.807-4.167,18.188c2.493,6.355,8.521,10.461,15.355,10.461H320.05c6.834,0,12.862-4.106,15.355-10.461    c2.503-6.381,0.867-13.52-4.167-18.188c-7.869-7.296-18.935-12.708-29.637-17.943c-6.73-3.291-13.086-6.4-17.518-9.492    c-4.733-3.302-4.866-4.949-4.866-4.965v-85.77c3.725,0.986,7.566,1.509,11.414,1.509c7.2,0,14.394-1.778,20.803-5.141    c8.583-4.504,19.081-4.503,27.663,0c12.788,6.711,28.612,6.862,41.536,0.037c5.185-2.738,11.186-3.898,17.019-3.282    c11.43,1.208,21.7-8.047,21.7-19.517v-23.035c0-19.25-15.661-34.911-34.91-34.911h-83.189    c-1.479-21.027-5.943-40.327-12.788-54.944c-4.074-8.702-12.935-14.325-22.575-14.325h-2.977    c-1.071-20.424-3.764-35.12-8.621-46.757c6.625-4.325,11.212-11.254,12.496-19.364c1.508-9.519-1.799-18.905-8.721-25.317    c-0.735-6.25-3.478-12.009-7.92-16.508c-5.385-5.454-12.843-8.582-20.463-8.582c-4.838,0-9.529,1.24-13.755,3.614    c-1.843-0.369-3.705-0.555-5.567-0.555c-9.086,0-17.725,4.484-23.11,11.996c-4.641,6.474-6.304,14.323-4.762,22.009    c-4.563,8.177-4.837,18.061-0.553,26.603c4.344,8.663,12.586,14.395,22.017,15.522c5.355,5.813,12.749,9.082,20.791,9.083    c6.76,0,13.04-2.333,17.995-6.336c2.72,8.908,4.362,20.045,5.155,34.593h-1.79C236.464,164.049,227.603,169.671,223.528,178.373z     M224.742,120.792c-2.578,0-7.426-0.743-10.94-5.711c-1.473-2.082-3.897-3.187-6.413-3.168c-5.202,0-9.705-2.785-12.044-7.451    c-2.338-4.661-1.871-9.939,1.249-14.12c1.477-1.978,1.885-4.556,1.092-6.894c-2.863-8.441,3.547-17.87,12.676-17.87    c1.474,0,2.968,0.253,4.441,0.752c2.338,0.792,4.916,0.385,6.894-1.092c2.384-1.779,5.146-2.72,7.987-2.72    c7.515,0,13.677,6.231,13.582,13.71c-0.031,2.468,1.154,4.794,3.169,6.219c8.989,6.359,6.676,20.657-3.786,23.909    c-3.116,0.969-5.667,3.709-5.827,7.136C234.151,118.828,228.841,120.792,224.742,120.792z M295.01,431.36    c9.725,4.756,19.782,9.675,26.028,15.467c0.195,0.181,0.787,0.729,0.402,1.711c-0.368,0.939-1.138,0.939-1.391,0.939H191.943    c-0.253,0-1.022,0-1.391-0.939c-0.385-0.981,0.207-1.53,0.402-1.711c6.247-5.792,16.303-10.71,26.028-15.467    c15.836-7.745,30.793-15.06,30.793-27.932v-91.637c0.101-0.029,0.202-0.057,0.303-0.084c5.249-1.445,10.905-1.426,16.138,0.085    v91.637C264.217,416.3,279.175,423.615,295.01,431.36z M404.352,268.229c0,0,0,22.979,0,23.035c0,2.72-2.436,4.886-5.13,4.599    c-8.77-0.921-17.796,0.817-25.594,4.936c-8.563,4.523-19.006,4.435-27.561-0.055c-12.909-6.775-28.695-6.774-41.604,0    c-8.532,4.478-19.042,4.526-27.665,0c-12.775-6.705-28.811-6.715-41.604,0c-8.494,4.458-19.039,4.527-27.665,0    c-12.902-6.771-28.704-6.77-41.604,0c-8.563,4.494-18.992,4.581-27.561,0.055c-7.798-4.119-16.828-5.858-25.592-4.936    c-2.766,0.296-5.131-1.881-5.131-4.599v-23.035c0-10.979,8.932-19.911,19.911-19.911h256.89    C395.42,248.318,404.352,257.25,404.352,268.229z M274.879,184.733c5.974,12.758,9.931,29.792,11.345,48.584h-60.457    c1.415-18.795,5.372-35.826,11.345-48.584c1.617-3.453,5.146-5.685,8.99-5.685h19.787    C269.734,179.049,273.263,181.28,274.879,184.733z" fill="#000000" data-original="#000000" class=""/>
		<path d="M361.695,344.28h81.128c3.829,0,7.042-2.883,7.456-6.689l3.114-28.645c0.448-4.118-2.527-7.819-6.646-8.267    c-4.114-0.443-7.819,2.527-8.267,6.646l-2.387,21.956h-74.399c-16.728,0-30.337,13.609-30.337,30.337v21.377    c0,4.142,3.358,7.5,7.5,7.5h8.221v60.208c0,8.698,7.077,15.774,15.775,15.774h13.796c8.698,0,15.775-7.076,15.775-15.774v-60.208    h32.387v60.208c0,8.698,7.077,15.774,15.775,15.774h13.797c8.698,0,15.775-7.076,15.775-15.774V387.53    c11.643-3.032,20.577-12.961,21.934-25.443l19.797-182.128c1.088-10.011-6.172-19.041-16.183-20.129c0,0-22.53-2.45-22.554-2.452    c-9.89-1.075-19.058,6.32-20.13,16.183l-11.303,103.986c-0.448,4.118,2.528,7.819,6.646,8.267    c4.112,0.444,7.819-2.527,8.267-6.646l11.303-103.986c0.194-1.789,1.807-3.089,3.597-2.892l22.554,2.452    c1.789,0.194,3.086,1.808,2.892,3.597l-19.797,182.128c-0.808,7.427-7.05,13.028-14.521,13.028h-116.3v-13.877    C346.357,351.16,353.238,344.28,361.695,344.28z M455.158,388.494v60.208c0,0.427-0.348,0.774-0.775,0.774h-13.797    c-0.427,0-0.775-0.347-0.775-0.774v-60.208H455.158z M377.424,388.494v60.208c0,0.427-0.348,0.774-0.775,0.774h-13.796    c-0.427,0-0.775-0.347-0.775-0.774v-60.208H377.424z" fill="#000000" data-original="#000000" class=""/>
		<path d="M19.902,362.087c1.357,12.482,10.29,22.412,21.934,25.443v61.172c0,8.698,7.077,15.774,15.775,15.774h13.796    c8.698,0,15.775-7.076,15.775-15.774v-60.208h32.387v60.208c0,8.698,7.076,15.774,15.774,15.774h13.797    c8.698,0,15.775-7.076,15.775-15.774v-60.208h8.22c4.142,0,7.5-3.358,7.5-7.5v-21.377c0-16.728-13.609-30.337-30.337-30.337    H75.899l-9.772-89.897c-0.448-4.118-4.141-7.09-8.267-6.646c-4.118,0.448-7.093,4.148-6.646,8.267l10.499,96.586    c0.414,3.806,3.627,6.689,7.456,6.689h81.128c8.457,0,15.337,6.88,15.337,15.337v13.877h-116.3    c-7.471,0-13.714-5.601-14.521-13.028c0,0-19.766-181.837-19.797-182.128c-0.182-1.674,1.078-3.4,2.892-3.597l22.554-2.452    c1.789-0.195,3.402,1.103,3.597,2.892l3.894,35.823c0.447,4.118,4.143,7.094,8.267,6.646c4.118-0.448,7.093-4.148,6.646-8.267    c0,0-3.89-35.789-3.894-35.823c-1.074-9.882-10.256-17.256-20.13-16.183c0,0-22.535,2.45-22.554,2.452    c-9.896,1.076-17.259,10.231-16.183,20.13L19.902,362.087z M149.915,388.494v60.208c0,0.427-0.348,0.774-0.775,0.774h-13.797    c-0.427,0-0.774-0.347-0.774-0.774v-60.208H149.915z M72.182,388.494v60.208c0,0.427-0.348,0.774-0.775,0.774H57.61    c-0.427,0-0.775-0.347-0.775-0.774v-60.208H72.182z" fill="#000000" data-original="#000000" class=""/>
	</g>
</g>















</g></svg>
