<svg id="Layer_3" height="512" viewBox="0 0 64 64" width="512" xmlns="http://www.w3.org/2000/svg" data-name="Layer 3"><path d="m44 54v3a5 5 0 0 1 -5 5h-26a5 5 0 0 1 -5-5v-3z" fill="#f4b2b0"/><path d="m28.939 3.061-.939.939 26 26 .939-.939a3.624 3.624 0 0 0 1.061-2.561 3.624 3.624 0 0 0 -1.061-2.561l-20.878-20.878a3.624 3.624 0 0 0 -2.561-1.061 3.624 3.624 0 0 0 -2.561 1.061z" fill="#f4b2b0"/><path d="m41 10 1.55-1.55a4.948 4.948 0 0 1 3.5-1.45 4.95 4.95 0 0 1 4.95 4.95 4.948 4.948 0 0 1 -1.45 3.5l-1.55 1.55" fill="#f4b2b0"/><path d="m12 9 1-4 5 1 2 4-3 4-5-1-2-2z" fill="#f4b2b0"/><path d="m24 13 1-3 3 1 2 3-4 2-4-1z" fill="#f4b2b0"/><g fill="#b3404a"><path d="m7 20v37a6.006 6.006 0 0 0 6 6h26a6.006 6.006 0 0 0 6-6v-34.586l8.293 8.293a1 1 0 0 0 1.414 0l.939-.939a4.621 4.621 0 0 0 0-6.536l-6.232-6.232.843-.843a5.95 5.95 0 1 0 -8.414-8.414l-.843.843-6.232-6.232a4.621 4.621 0 0 0 -6.536 0l-.939.939a1 1 0 0 0 0 1.414l14.293 14.293h-33.586a1 1 0 0 0 -1 1zm36.257-10.843a3.95 3.95 0 1 1 5.586 5.586l-.843.843-5.586-5.586zm-13.611-5.389a2.714 2.714 0 0 1 3.708 0l20.878 20.878a2.622 2.622 0 0 1 0 3.708l-.232.232-9.292-9.292-15.294-15.294zm9.354 57.232h-26a4 4 0 0 1 -4-4v-2h34v2a4 4 0 0 1 -4 4zm4-40v32h-34v-32z"/><path d="m15 49a3 3 0 0 0 3-3v-18a3 3 0 0 0 -6 0v18a3 3 0 0 0 3 3zm-1-21a1 1 0 0 1 2 0v18a1 1 0 0 1 -2 0z"/><path d="m26 49a3 3 0 0 0 3-3v-18a3 3 0 0 0 -6 0v18a3 3 0 0 0 3 3zm-1-21a1 1 0 0 1 2 0v18a1 1 0 0 1 -2 0z"/><path d="m37 49a3 3 0 0 0 3-3v-18a3 3 0 0 0 -6 0v18a3 3 0 0 0 3 3zm-1-21a1 1 0 0 1 2 0v18a1 1 0 0 1 -2 0z"/><path d="m11.8 13.98 5 1a.932.932 0 0 0 .2.02 1 1 0 0 0 .8-.4l3-4a1 1 0 0 0 .1-1.047l-2-4a1 1 0 0 0 -.7-.533l-5-1a1 1 0 0 0 -1.166.737l-.934 3.732-1.8 1.8a1 1 0 0 0 0 1.414l2 2a.991.991 0 0 0 .5.277zm.9-4.273a1 1 0 0 0 .263-.464l.769-3.076 3.585.718 1.5 3.01-2.251 3-4.085-.817-1.067-1.078z"/><path d="m21.758 15.97 4 1a.99.99 0 0 0 .242.03 1.009 1.009 0 0 0 .447-.105l4-2a1 1 0 0 0 .385-1.45l-2-3a1 1 0 0 0 -.516-.394l-3-1a1 1 0 0 0 -1.264.633l-.926 2.776-1.833 1.833a1 1 0 0 0 .465 1.677zm2.949-2.263a1.011 1.011 0 0 0 .241-.391l.685-2.051 1.725.575 1.182 1.772-2.656 1.328-1.928-.482z"/></g></svg>