<?xml version="1.0"?>
<svg xmlns="http://www.w3.org/2000/svg" xmlns:xlink="http://www.w3.org/1999/xlink" xmlns:svgjs="http://svgjs.com/svgjs" version="1.1" width="512" height="512" x="0" y="0" viewBox="0 0 512 512" style="enable-background:new 0 0 512 512" xml:space="preserve" class=""><g transform="matrix(1,0,0,1,0,1.1368683772161603e-13)">
<g xmlns="http://www.w3.org/2000/svg">
	<g>
		<g>
			<g>
				<g>
					<path style="" d="M362.98,246.727c0,12.931-7.763,23.414-17.34,23.414c-9.577,0-15.14-12.039-15.14-24.97       s5.563-21.858,15.14-21.858C355.217,223.312,362.98,233.795,362.98,246.727z" fill="#e8916f" data-original="#e8916f" class=""/>
					<path style="" d="M472.02,246.727c0,12.931,7.763,23.414,17.34,23.414c9.577,0,15.14-12.039,15.14-24.97       s-5.563-21.858-15.14-21.858C479.783,223.312,472.02,233.795,472.02,246.727z" fill="#d98868" data-original="#d98868" class=""/>
				</g>
			</g>
			<rect x="399.817" y="319.314" style="" width="35.366" height="56.762" fill="#d98868" data-original="#d98868" class=""/>
			<path style="" d="M353.841,268.427v-47.97c0-33.179,26.897-60.076,60.076-60.076h7.164     c33.179,0,60.076,26.897,60.076,60.076v47.97c0,35.158-28.501,63.658-63.658,63.658h0     C382.342,332.086,353.841,303.585,353.841,268.427z" fill="#ebad88" data-original="#ebad88" class=""/>
			<path style="" d="M421.082,160.381h-7.164c-2.379,0-4.721,0.154-7.028,0.424     c29.866,3.493,53.049,28.943,53.049,59.84v47.584c0,31.641-22.942,57.902-53.049,62.969c3.451,0.581,6.994,0.888,10.61,0.888h0     c35.158,0,63.659-28.59,63.659-63.857v-47.584C481.159,187.362,454.261,160.381,421.082,160.381z" fill="#e8916f" data-original="#e8916f" class=""/>
			<path style="" d="M500.256,418.009V430H334.744v-11.991c0-34.866,24.479-63.13,54.678-63.13h56.156     C475.777,354.879,500.256,383.143,500.256,418.009z" fill="#acc3d1" data-original="#47d5e6" class=""/>
			<path style="" d="M445.578,354.879h-30c30.199,0,54.678,28.264,54.678,63.13V430h30v-11.991     C500.256,383.143,475.777,354.879,445.578,354.879z" fill="#e1d2d2" data-original="#22c0d4" class=""/>
			<polygon style="" points="390.994,354.879 444.006,354.879 417.5,430    " fill="#dcdfe8" data-original="#dcdfe8" class=""/>
			<g>
				<polygon style="" points="417.5,430 398.001,347.695 376.667,354.879 376.667,386.603     " fill="#bddde1" data-original="#20b5c7" class=""/>
				<polygon style="" points="417.5,430 436.999,347.695 458.333,354.879 458.333,386.603     " fill="#bddde1" data-original="#20b5c7" class=""/>
			</g>
			<path style="" d="M353.568,233.389c0,0,5.297,2.143,10.734-8.089c6.218-11.702,22.604-18.237,42.241-17.525     c24.368,0.884,34.375-7.721,39.216-16.365c6.695,22.188,16.113,16.365,22.235,35.287c3.51,10.85,12.714,6.692,12.714,6.692     s25.328-14.732,12.274-38.123c2.243-47.006-34.506-49.791-34.506-49.791s-16.796-21.396-62.836-10.267     c-66.436,16.059-54.641,62.889-54.641,62.889S329.574,220.278,353.568,233.389z" fill="#e9b413" data-original="#ffd659" class=""/>
			<g>
				<path style="" d="M492.981,195.266c2.243-47.006-34.506-49.791-34.506-49.791s-14.572-18.532-53.734-12.11      c8.412,1.703,14.333,4.714,18.157,7.308c4.049,2.746,8.45,4.952,13.076,6.541c10.62,3.647,28.595,14.756,27.006,48.052      c5.162,9.25,4.313,17.138,1.411,23.304c1.284,2.113,2.496,4.713,3.601,8.127c3.51,10.85,12.714,6.692,12.714,6.692      S506.036,218.657,492.981,195.266z" fill="#ffbd54" data-original="#ffbd54" class=""/>
			</g>
		</g>
		<g>
			<rect x="76.817" y="319.314" style="" width="35.366" height="56.762" fill="#d98868" data-original="#d98868" class=""/>
			<path style="" d="M30.841,268.427v-47.97c0-33.179,26.897-60.076,60.076-60.076h7.164     c33.179,0,60.076,26.897,60.076,60.076v47.97c0,35.158-28.501,63.658-63.658,63.658h0     C59.342,332.086,30.841,303.585,30.841,268.427z" fill="#ebad88" data-original="#ebad88" class=""/>
			<path style="" d="M98.082,160.381h-7.164c-2.379,0-4.721,0.154-7.028,0.424     c29.866,3.493,53.049,28.943,53.049,59.84v47.584c0,31.641-22.942,57.902-53.049,62.969c3.451,0.581,6.994,0.888,10.61,0.888h0     c35.158,0,63.658-28.59,63.658-63.857v-47.584C158.159,187.362,131.261,160.381,98.082,160.381z" fill="#e8916f" data-original="#e8916f" class=""/>
			<path style="" d="M177.256,418.009V430H11.744v-11.991c0-34.866,24.479-63.13,54.678-63.13h56.156     C152.777,354.879,177.256,383.143,177.256,418.009z" fill="#ff2c5c" data-original="#ff2c5c" class=""/>
			<path style="" d="M122.578,354.879h-30c30.199,0,54.678,28.264,54.678,63.13V430h30v-11.991     C177.256,383.143,152.777,354.879,122.578,354.879z" fill="#e62753" data-original="#e62753" class=""/>
			<polygon style="" points="67.994,354.879 121.006,354.879 94.5,430    " fill="#dcdfe8" data-original="#dcdfe8" class=""/>
			<g>
				<polygon style="" points="94.5,430 75.001,347.695 53.667,354.879 53.667,386.603     " fill="#d6244d" data-original="#d6244d" class=""/>
				<polygon style="" points="94.5,430 113.999,347.695 135.333,354.879 135.333,386.603     " fill="#d6244d" data-original="#d6244d" class=""/>
			</g>
			<path style="" d="M106.809,191.45c0,0-37.158,16.736-49.991,38.35c-17.651,29.727-17.318,60.422-26.87,89.523     c0,0-22.448-31.141-22.448-63.826c0-140.248,102.375-123.269,106.946-112.615c20.649-8.656,62.054,9.238,62.054,91.395     c0,42.278-5.089,70.473-19.07,87.723c0,0-8.581-36.685-12.196-68.27C138.615,195.893,106.809,191.45,106.809,191.45z" fill="#e9b413" data-original="#ffd659" class=""/>
			<g>
				<path style="" d="M114.446,142.882c-1.841-4.291-19.548-9.605-40.04-5.263c3.625,0.884,6.368,3.15,9.724,9.136      c4.472,7.978,11.154,14.538,19.44,18.368c22.304,10.311,36.371,31.837,43.064,69.154c1.58,8.808-0.231,17.261-0.723,24.979      C149.814,289.437,157.43,322,157.43,322c13.981-17.25,19.07-45.445,19.07-87.723C176.5,152.12,135.096,134.226,114.446,142.882z      " fill="#ffbd54" data-original="#ffbd54" class=""/>
			</g>
		</g>
		<g>
			<g>
				<path style="" d="M178.92,207.695c0,18.225-10.976,33-24.515,33c-13.539,0-21.405-16.967-21.405-35.193      s7.865-30.807,21.405-30.807C167.944,174.695,178.92,189.47,178.92,207.695z" fill="#e8916f" data-original="#e8916f" class=""/>
				<path style="" d="M333.08,207.695c0,18.225,10.976,33,24.515,33S379,223.728,379,205.502      s-7.865-30.807-21.405-30.807S333.08,189.47,333.08,207.695z" fill="#d98868" data-original="#d98868" class=""/>
			</g>
		</g>
		<rect x="231" y="310" style="" width="50" height="80" fill="#d98868" data-original="#d98868" class=""/>
		<path style="" d="M166,238v-67.065C166,124.027,204.027,86,250.935,86h10.129C307.973,86,346,124.027,346,170.935    V238c0,49.706-40.294,90-90,90h0C206.294,328,166,287.706,166,238z" fill="#ebad88" data-original="#ebad88" class=""/>
		<path style="" d="M261.065,86h-10.129c-3.363,0-6.674,0.217-9.935,0.598c42.224,4.923,75,40.793,75,84.338V238    c0,44.594-32.435,81.606-75,88.749c4.879,0.819,9.888,1.251,15,1.251h0c49.706,0,90-40.294,90-90v-67.065    C346,124.027,307.973,86,261.065,86z" fill="#e8916f" data-original="#e8916f" class=""/>
		<path style="" d="M373,449.1V466H139v-16.9c0-49.141,34.609-88.975,77.304-88.975h79.393    C338.391,360.125,373,399.959,373,449.1z" fill="#32b7c3" data-original="#685c79" class=""/>
		<path style="" d="M295.696,360.125h-30c42.695,0,77.304,39.835,77.304,88.975V466h30v-16.9    C373,399.959,338.391,360.125,295.696,360.125z" fill="#258a93" data-original="#594f69" class=""/>
		<polygon style="" points="218.526,360.125 293.474,360.125 256,466   " fill="#e9b413" data-original="#ffd659" class=""/>
		<g>
			<polygon style="" points="256,466 228.433,350 198.271,360.125 198.271,404.836 212.899,415.444 212.899,434.672         " fill="#135c8f" data-original="#50475e" class=""/>
			<polygon style="" points="256,466 283.567,350 313.729,360.125 313.729,404.836 299.101,415.444 299.101,434.672         " fill="#135c8f" data-original="#50475e" class=""/>
		</g>
		<path style="" d="M165.613,188.897c0,0,7.488,3.02,15.175-11.401c8.791-16.493,31.957-25.704,59.72-24.7    c34.452,1.246,48.599-10.882,55.443-23.064c9.466,31.271,22.781,23.064,31.435,49.733c4.963,15.293,17.975,9.432,17.975,9.432    s35.809-20.763,17.353-53.73c3.171-66.25-48.784-70.175-48.784-70.175s-23.746-30.156-88.837-14.47    c-93.927,22.634-77.251,88.635-77.251,88.635S131.691,170.419,165.613,188.897z" fill="#8c4a37" data-original="#8c4a37" class=""/>
		<g>
			<path style="" d="M362.715,135.167c3.171-66.25-48.784-70.175-48.784-70.175s-18.904-24.001-69.206-18.038     c28.03,3.849,39.206,18.038,39.206,18.038s51.955,3.924,48.784,70.175c10.881,19.437,2.899,34.629-5.485,43.827     c0.052,0.158,0.105,0.311,0.157,0.471c4.963,15.293,17.975,9.432,17.975,9.432S381.171,168.134,362.715,135.167z" fill="#804231" data-original="#804231" class=""/>
		</g>
	</g>
	<g>
		<path d="M464.571,350.746c-0.9-1.358-2.225-2.43-3.845-2.975l-18.046-6.076v-6.707c6.562-2.479,12.709-5.899,18.317-10.236    c3.277-2.534,3.879-7.244,1.345-10.521c-2.534-3.276-7.242-3.878-10.521-1.345c-22.301,17.243-54.028,15.263-74.039-4.748    c-22.433-22.434-14.97-47.72-16.443-60.241c11.893-1.93,20.895-13.094,24.008-29.842c6.005-2.094,13.141-3.067,20.918-2.787    c16.084,0.584,28.558-2.687,37.29-9.753c3.013,5.243,6.215,8.21,8.99,10.782c3.479,3.225,5.994,5.555,8.31,12.721    c2.911,8.974,8.996,11.548,12.357,12.282c0.15,0.033,0.298,0.056,0.447,0.084v27.049c0,7.774-1.557,15.297-4.626,22.36    c-1.651,3.799,0.09,8.217,3.889,9.868c3.79,1.648,8.213-0.082,9.868-3.889c2.673-6.151,4.419-12.577,5.265-19.182    C504.002,278.609,512,261.411,512,245.171c0-11.394-3.698-20.277-10.059-25.168c3.397-8.478,2.955-17.584-1.393-26.443    c1.139-43.403-28.571-53.063-38.399-55.066c-6.401-6.007-26.944-20.562-68.273-10.572c-8.305,2.011-15.838,4.598-22.539,7.697    c-0.333-0.73-0.669-1.46-1.041-2.188c1.146-36.165-13.612-54.875-26.337-64.235c-10.474-7.704-21.229-10.377-26.374-11.266    c-7.205-7.049-32.172-26.218-83.598-16.948c-4.077,0.734-6.786,4.635-6.051,8.711c0.734,4.077,4.638,6.784,8.711,6.051    c51.614-9.299,70.656,12.997,71.391,13.887c1.281,1.702,3.167,2.653,5.289,2.836c1.825,0.157,44.669,4.511,41.902,62.345    c-0.194,4.05,2.832,5.527,4.585,13.142c0.004,0.017,0.006,0.033,0.01,0.05c3.14,13.637-5.931,26.558-17.763,34.122    c-4.233,1.331-6.174-0.774-7.538-4.983c-4.732-14.566-11.075-20.428-16.672-25.599c-5.558-5.135-10.357-9.569-14.723-23.988    c-0.871-2.876-3.375-4.956-6.364-5.282c-2.991-0.327-5.882,1.163-7.354,3.783c-2.858,5.091-11.568,20.58-48.628,19.247    c-31.057-1.125-56.589,9.855-66.61,28.666c-2.797,5.246-5.243,7.108-6.35,7.568c-12.585-7.344-18.717-18.054-15.492-32.386    c0.878-3.938,2.174-6.55,2.173-6.55c0.829-1.604,1.042-3.489,0.617-5.244c-0.49-2.022-11.268-49.798,52.032-73.572    c3.877-1.457,5.84-5.78,4.384-9.658s-5.781-5.839-9.658-4.384c-39.407,14.801-54.057,38.611-59.407,55.978    c-4.033,13.093-3.501,24.514-2.719,30.607c-7.876-3.083-16.067-3.782-23.51-1.922c-8.747-5.643-26.122-7.676-42.897-4.229    c-14.034,2.884-34.047,10.907-49.694,32.751C7.958,184.839,0,215.984,0,255.501c0,34.703,22.892,66.854,23.866,68.206    c3.563,4.942,11.292,3.806,13.211-2.051c0.888-2.71,1.68-5.409,2.413-8.089c1.474,1.792,3.032,3.522,4.687,5.177    c7.149,7.149,15.759,12.694,25.143,16.249v6.703l-18.046,6.076c-1.62,0.545-2.945,1.617-3.845,2.975    C21.792,360.017,4.24,386.989,4.24,418.01V430c0,4.142,3.358,7.5,7.5,7.5c13.017,0,106.447,0,120.375,0    c-0.399,3.811-0.616,7.68-0.616,11.6V466c0,4.142,3.358,7.5,7.5,7.5h234c4.142,0,7.5-3.358,7.5-7.5v-16.9    c0-3.92-0.216-7.789-0.616-11.6c13.822,0,107.443,0,120.375,0c4.142,0,7.5-3.358,7.5-7.5v-11.99    C507.76,386.989,490.208,360.017,464.571,350.746z M384.167,360.268l8.432-2.839l11.134,46.995l-19.566-20.795V360.268z     M409.188,362.38h16.624l-8.312,35.086L409.188,362.38z M442.4,357.429l8.432,2.839v23.362l-19.566,20.795L442.4,357.429z     M427.68,338.862v8.518h-20.36v-8.518C414.079,339.832,420.914,339.833,427.68,338.862z M392.32,334.992v6.703l-18.046,6.076    c-1.623,0.546-2.95,1.62-3.85,2.982c-10.08,3.663-19.171,10.201-26.403,18.972c-7.088-5.569-15.006-9.96-23.569-12.912    c-0.864-1.754-2.397-3.149-4.336-3.8l-27.616-9.27v-13.799c25.17-8.903,45.734-27.932,56.605-52.321    c0.45,0.013,0.603,0.042,1.835-0.037C350.322,304.066,368.188,325.851,392.32,334.992z M217.302,409.373l-11.531-8.363v-35.492    l17.264-5.795l20.983,88.296l-23.62-17.167v-15.407C220.398,413.042,219.247,410.784,217.302,409.373z M195.884,353.015    c-1.939,0.651-3.472,2.046-4.336,3.8c-8.564,2.952-16.481,7.342-23.569,12.912c-7.232-8.771-16.324-15.31-26.403-18.972    c-0.9-1.362-2.227-2.436-3.85-2.982l-18.046-6.076v-6.718c11.05-4.181,20.845-11.03,28.531-19.87    c1.118,5.187,1.86,8.362,1.916,8.604c1.42,6.064,9.21,7.849,13.13,3.012c6.488-8.007,11.258-17.916,14.587-30.439    c2.801,3.748,5.866,7.315,9.212,10.661c10.298,10.298,22.808,18.173,36.443,22.997v13.804L195.884,353.015z M61.167,360.268    l8.432-2.839l11.134,46.995l-19.566-20.795V360.268z M104.68,338.862v8.518H84.32v-8.518    C91.08,339.833,97.914,339.833,104.68,338.862z M102.812,362.38L94.5,397.467l-8.312-35.086H102.812z M119.4,357.429l8.432,2.839    v23.362l-19.566,20.795L119.4,357.429z M158.5,232.405c-4.564,1.783-8.162,0.571-11.133-2.929    c-8.639-10.172-9.721-37.127,0.206-44.989c3.04,3.29,6.697,6.271,10.927,8.924V232.405z M158.987,247.777    c0.987,9.985,3.493,19.665,7.493,28.896c-1.357,9.373-3.301,17.463-5.883,24.33c-0.405-2.015-0.825-4.141-1.251-6.353    c-0.01-0.058-0.02-0.115-0.031-0.172c-3.037-15.707-5.268-29.704-6.632-41.596c-0.185-1.622-0.4-3.219-0.629-4.803    C154.209,248.295,156.424,248.239,158.987,247.777z M273.5,352.621h-35v-18.696c11.375,2.063,23.21,2.138,35,0V352.621z     M271.671,367.621L256,433.561l-15.671-65.941H271.671z M288.965,359.724l17.264,5.795v35.492l-11.531,8.363    c-1.945,1.411-3.097,3.668-3.097,6.071v15.407l-23.62,17.167L288.965,359.724z M353.5,232.392v-39.959    c2.704-2.012,6.222-4.958,9.664-8.809c6.072,3.518,8.336,13.115,8.336,21.876C371.5,218.333,366.1,237.303,353.5,232.392z     M489.36,262.641c-0.234,0-0.467-0.032-0.7-0.062v-25.614c1.457-1.143,3.142-2.599,4.855-4.353    C500.135,239.691,496.529,262.641,489.36,262.641z M397.402,142.501c39.442-9.535,54.154,6.431,55.208,7.652    c1.293,1.734,3.085,2.639,5.249,2.802c0.076,0.007,7.684,0.754,14.753,6.2c9.332,7.19,13.664,19.221,12.876,35.759    c-0.066,1.398,0.26,2.788,0.942,4.011c4.048,7.256,3.727,13.647-1.015,20.121c-2.861,3.915-6.512,6.571-7.979,7.55    c-1.04,0.196-1.516,0.243-2.309-2.201c-3.519-10.885-8.229-15.25-12.385-19.101c-3.848-3.566-6.888-6.383-9.801-16.046    c-0.869-2.881-3.375-4.963-6.366-5.291c-2.986-0.325-5.888,1.165-7.358,3.79c-1.862,3.324-7.527,13.432-32.409,12.53    c-7.23-0.261-14.118,0.377-20.396,1.857c-0.72-14.496-6.114-25.503-14.865-31.009c3.126-6.685,4.398-13.704,3.784-20.784    C381.661,147.16,389.049,144.524,397.402,142.501z M187.409,181.027c7.192-13.499,27.93-21.637,52.831-20.731    c23.741,0.856,41.661-4.377,53.478-15.58c4.49,9.102,9.439,13.675,13.954,17.846c5.064,4.679,9.063,8.375,12.584,19.212    c2.804,8.65,7.862,12.445,11.611,14.106c2.282,1.011,4.543,1.458,6.633,1.58v40.541c0,9.727-1.674,19.252-4.975,28.306    c-9.007,24.647-29.42,43.701-54.606,50.969c-14.824,4.28-31.012,4.281-45.842-0.001c-13.309-3.837-25.555-11.077-35.414-20.936    c-6.963-6.963-12.561-14.993-16.642-23.875c-4.991-10.834-7.522-22.429-7.522-34.462v-42.6    C177.773,193.646,182.813,189.645,187.409,181.027z M44.157,293.347c0.298-1.459,0.598-2.918,0.894-4.381    c3.752-18.55,7.296-36.071,17.12-53.442c2.039-3.605,0.769-8.181-2.836-10.22c-3.604-2.039-8.181-0.77-10.22,2.836    c-13.676,24.182-16.304,48.02-21.753,72.06C21.565,288.814,15,272.225,15,255.501c0-69.358,25.482-95.836,46.859-105.836    c21.328-9.977,42.076-5.611,46.288-2.719c1.933,3.005,5.796,4.279,9.202,2.852c4.489-1.882,11.652-2.23,19.425,1.6    c-0.654,5.98-0.283,13.109,2.659,20.383c-6.449,4.477-10.888,12.028-12.828,21.829c-9.624-8.192-18.235-9.515-18.759-9.588    c-1.399-0.195-2.827,0.01-4.116,0.59c-0.642,0.289-15.876,7.199-30.569,18.005c-3.337,2.454-4.053,7.148-1.599,10.485    c2.455,3.338,7.149,4.052,10.485,1.599c10.177-7.484,20.911-13.047,25.52-15.306c3.628,1.262,11.736,5.29,18.829,17.181    c1.375,8.432,4.241,15.668,8.358,21.124c1.315,5.236,2.341,10.892,3.025,16.883c1.332,11.619,3.465,25.14,6.324,40.187    c-7.14,13.406-19.405,23.414-34.004,27.623c-10.09,2.913-21.105,2.914-31.203-0.001c-9.059-2.611-17.397-7.54-24.113-14.257    C50.432,303.785,46.867,298.816,44.157,293.347z M19.24,418.01c0-21.945,10.685-41.244,26.927-50.274v18.867    c0,1.91,0.729,3.748,2.038,5.14l28.94,30.758H19.24V418.01z M111.855,422.5l28.94-30.758c1.309-1.392,2.038-3.229,2.038-5.14    v-18.827c5.303,2.984,10.111,7.134,14.165,12.233c-10.454,11.61-18.169,26.221-22.235,42.491H111.855z M146.5,449.1    c0-34.494,18.188-63.977,44.271-75.85v31.586c0,2.403,1.151,4.661,3.097,6.071l11.531,8.363v15.402c0,2.4,1.149,4.656,3.09,6.067    l24.436,17.761H146.5V449.1z M365.5,458.5h-86.425l24.436-17.761c1.941-1.411,3.09-3.667,3.09-6.067V419.27l11.531-8.363    c1.945-1.411,3.097-3.668,3.097-6.071V373.25c26.095,11.878,44.271,41.371,44.271,75.85V458.5z M355.003,380.009    c4.054-5.099,8.862-9.25,14.165-12.233v18.827c0,1.91,0.729,3.748,2.038,5.14l28.94,30.758h-22.907    C373.172,406.23,365.456,391.62,355.003,380.009z M492.76,422.5h-57.905l28.94-30.758c1.309-1.392,2.038-3.229,2.038-5.14v-18.867    c16.242,9.03,26.927,28.33,26.927,50.274V422.5z" fill="#000000" data-original="#000000" class=""/>
		<path d="M222.194,254.572c-1.833-3.687-6.302-5.209-10.005-3.399c-3.722,1.817-5.267,6.308-3.449,10.03    c0.52,1.065,13.14,26.089,48.159,26.089c35.379,0,46.131-25.473,46.572-26.558c1.559-3.838-0.274-8.248-4.112-9.807    c-3.837-1.56-8.198,0.253-9.756,4.091c-0.304,0.705-7.736,17.273-32.704,17.273C231.635,272.292,222.628,255.417,222.194,254.572z    " fill="#000000" data-original="#000000" class=""/>
		<path d="M275.5,211.003c0.835,0,1.685-0.141,2.517-0.437c16.479-5.869,30.614-2.7,30.721-2.675    c4.024,0.971,8.079-1.502,9.052-5.528c0.973-4.026-1.502-8.079-5.528-9.052c-0.742-0.179-18.413-4.307-39.279,3.124    c-3.902,1.39-5.938,5.68-4.549,9.582C269.528,209.088,272.417,211.003,275.5,211.003z" fill="#000000" data-original="#000000" class=""/>
		<path d="M203.262,207.891c0.138-0.032,14.287-3.179,30.721,2.675c0.832,0.296,1.681,0.437,2.517,0.437    c3.083,0,5.972-1.916,7.065-4.985c1.39-3.902-0.647-8.192-4.549-9.582c-20.866-7.432-38.536-3.304-39.279-3.124    c-4.026,0.973-6.501,5.026-5.528,9.052C195.184,206.389,199.231,208.864,203.262,207.891z" fill="#000000" data-original="#000000" class=""/>
	</g>
</g>















</g></svg>
