<svg enable-background="new 0 0 256 256" height="512" viewBox="0 0 256 256" width="512" xmlns="http://www.w3.org/2000/svg"><g id="Layer_1"><g><path d="m240.515 23.049h-225.03c-5.523 0-10 4.477-10 10v142.06c0 5.523 4.477 10.002 10 10.002h225.03c5.523 0 10-4.479 10-10.002v-142.06c0-5.523-4.477-10-10-10z" fill="#72c2e9"/><path d="m62.873-2.534h130.254v213.225h-130.254z" fill="#efefef" transform="matrix(0 1 -1 0 232.079 -23.921)"/><path d="m152.72 216.451h-49.44l8.82-31.34h31.8z" fill="#72c2e9"/><path d="m146.48 194.281h-36.96l2.58-9.17h31.8z" fill="#4ba5c8"/><path d="m175.75 226.451v6.5h-95.5v-6.5c0-5.52 4.48-10 10-10h75.5c5.52 0 10 4.48 10 10z" fill="#72c2e9"/><path d="m83.55 70.955h-25.92l.006-7.501c.002-2.523 2.048-4.568 4.571-4.568h13.375c1.622 0 3.22-.392 4.658-1.143l5.586-2.917c2.826 5.643 1.647 11.951-2.276 16.129z" fill="#7c7b7a"/><path d="m70.588 93.456c-7.156 0-12.957-5.801-12.957-12.957v-9.544h25.915v9.544c-.001 7.156-5.802 12.957-12.958 12.957z" fill="#ffb69f"/><path d="m95.499 108.555v15.901h-50.21v-15.901c0-8.335 6.764-15.099 15.099-15.099h20.012c8.334 0 15.099 6.764 15.099 15.099z" fill="#fc5d3d"/><path d="m196.891 70.789-33.18 33.29-17.91-43.46c5.52-2.28 11.57-3.54 17.91-3.54 12.95 0 24.68 5.24 33.18 13.71z" fill="#fc5d3d"/><path d="m209.701 94.339-45.99 9.74 33.18-33.29c6.34 6.32 10.89 14.45 12.81 23.55z" fill="#72c2e9"/><path d="m183.771 146.589-20.06-42.51 45.99-9.74c4.512 21.464-6.319 42.986-25.93 52.25z" fill="#f0c020"/><path d="m163.711 104.079-20.63 42.23c-15.62-7.64-26.37-23.68-26.37-42.23 0-19.62 12.02-36.42 29.09-43.46z" fill="#7d7b79"/><path d="m183.771 146.589c-6.08 2.88-12.88 4.49-20.06 4.49-7.4 0-14.41-1.71-20.63-4.77l20.63-42.23z" fill="#13bf6d"/><g><path d="m225.612 163.254h-178.745c-1.381 0-2.5-1.119-2.5-2.5s1.119-2.5 2.5-2.5h176.245v-109.754c0-1.381 1.119-2.5 2.5-2.5s2.5 1.119 2.5 2.5v112.254c0 1.381-1.119 2.5-2.5 2.5zm-188.745 0h-6.479c-1.381 0-2.5-1.119-2.5-2.5s1.119-2.5 2.5-2.5h6.479c1.381 0 2.5 1.119 2.5 2.5s-1.119 2.5-2.5 2.5z" fill="#fff"/></g><circle cx="21.39" cy="78.95" r="2.5"/><path d="m250.52 121.87c-1.38 0-2.5 1.13-2.5 2.51 0 1.37 1.12 2.49 2.5 2.49 1.37 0 2.49-1.12 2.49-2.49 0-1.38-1.12-2.51-2.49-2.51z"/><circle cx="102.25" cy="232.95" r="2.5"/><g><path d="m18.89 169.21c0 1.38 1.114 2.49 2.5 2.49h213.22c1.401 0 2.5-1.129 2.5-2.49v-130.26c0-1.36-1.088-2.5-2.5-2.5h-213.22c-1.361 0-2.5 1.093-2.5 2.5v30c0 1.38 1.12 2.5 2.5 2.5s2.5-1.12 2.5-2.5v-27.5h208.22v125.26h-208.22v-77.76c0-1.38-1.12-2.5-2.5-2.5s-2.5 1.12-2.5 2.5z"/><path d="m2.979 175.11c.011 6.89 5.61 12.5 12.5 12.5h93.32l-7.412 26.34h-11.137c-6.891.01-12.5 5.61-12.5 12.5v6.5c0 1.393 1.136 2.5 2.5 2.5h12c1.38 0 2.5-1.12 2.5-2.5s-1.12-2.5-2.5-2.5h-9.5v-4c.01-4.13 3.37-7.49 7.5-7.5h75.5c4.13.01 7.49 3.37 7.5 7.5v4h-61c-1.38 0-2.5 1.12-2.5 2.5s1.12 2.5 2.5 2.5h63.5c1.369 0 2.5-1.097 2.5-2.5v-6.5c0-6.89-5.61-12.49-12.5-12.5h-11.137l-7.412-26.34h93.319c6.891 0 12.49-5.61 12.49-12.5v-40.74c0-1.37-1.12-2.49-2.49-2.49-1.38 0-2.5 1.12-2.5 2.49v40.74c-.01 4.13-3.38 7.49-7.5 7.5h-225.041c-4.12-.01-7.489-3.37-7.5-7.5v-142.06c.011-4.13 3.38-7.5 7.5-7.5h225.04c4.12 0 7.49 3.37 7.5 7.5v81.32c0 1.38 1.12 2.51 2.5 2.51s2.5-1.13 2.5-2.51c0 0 0-.01-.01-.01v-81.31c0-6.89-5.6-12.5-12.49-12.5h-225.04c-6.89 0-12.5 5.61-12.5 12.5zm103.603 38.84 7.412-26.339h28.014l7.412 26.339z"/><path d="m42.789 108.555v15.901c0 1.381 1.119 2.5 2.5 2.5s2.5-1.119 2.5-2.5v-15.901c0-6.947 5.652-12.599 12.6-12.599h20.011c6.947 0 12.6 5.652 12.6 12.599v15.901c0 1.381 1.119 2.5 2.5 2.5s2.5-1.119 2.5-2.5v-15.901c0-9.208-7.112-16.773-16.129-17.524 2.581-2.764 4.175-6.461 4.175-10.532v-8.619c4.186-5.05 5.077-12.047 2.015-18.17-.642-1.285-2.171-1.719-3.39-1.1l-5.59 2.92c-1.07.56-2.28.86-3.5.86h-13.371c-3.9 0-7.07 3.17-7.07 7.06-.011 8.452-.009 4.023-.009 17.049 0 4.062 1.587 7.752 4.158 10.513-9.191.572-16.5 8.21-16.5 17.543zm17.342-28.056v-7.039h20.914v7.039c0 5.766-4.691 10.458-10.457 10.458s-10.457-4.692-10.457-10.458zm2.079-19.109h13.37c3.625 0 5.694-1.364 8.92-3.05.948 3.679.06 7.363-2.097 10.115h-22.273l.01-4.995c0-1.14.929-2.07 2.07-2.07z"/><path d="m95.5 134.38h-50.21c-1.38 0-2.5 1.12-2.5 2.5 0 1.37 1.12 2.5 2.5 2.5h50.21c1.38 0 2.5-1.13 2.5-2.5 0-1.38-1.12-2.5-2.5-2.5z"/><path d="m95.5 145.88h-50.21c-1.38 0-2.5 1.12-2.5 2.5 0 1.37 1.12 2.49 2.5 2.49h50.21c1.38 0 2.5-1.12 2.5-2.49 0-1.38-1.12-2.5-2.5-2.5z"/></g><path d="m163.711 153.579c7.393 0 14.5-1.591 21.125-4.729 0 0 .001 0 .002-.001 20.227-9.554 32.121-32.129 27.309-55.022 0-.002 0-.003 0-.005-4.637-21.971-24.131-39.244-48.436-39.244-26.975 0-49.5 21.73-49.5 49.5 0 28.04 22.8 49.501 49.5 49.501zm33.137-79.205c4.656 5.187 8.01 11.35 9.822 18.051-12.368 2.619-22.331 4.729-35.256 7.467 7.672-7.698 2.402-2.411 25.434-25.518zm-50.396 70.73 17.22-35.25c9.928 21.039 5.166 10.946 16.743 35.481-5.292 2.154-10.899 3.244-16.704 3.244-6.024 0-11.818-1.168-17.259-3.475zm38.482-1.909-17.614-37.325c13.368-2.832 26.749-5.665 40.379-8.552 2.88 18.924-6.674 37.126-22.765 45.877zm-21.223-83.616c11.021 0 21.437 3.982 29.596 11.265-25.356 25.44-24.445 24.527-28.715 28.811l-15.501-37.615c4.686-1.634 9.593-2.461 14.62-2.461zm-44.5 44.5c0-17.258 9.834-32.748 25.258-40.131 8.813 21.386 7.705 18.697 16.502 40.044-4.382 8.969-14.592 29.871-19.008 38.911-14.098-7.876-22.752-22.532-22.752-38.824z"/></g></g></svg>