<svg id="Capa_1" enable-background="new 0 0 511.217 511.217" height="512" viewBox="0 0 511.217 511.217" width="512" xmlns="http://www.w3.org/2000/svg"><g><g><path d="m137.234 129.696v-19.07c0-9.64 5.55-18.42 14.25-22.58l29.98-14.31v-48.26h39.76l-.63 48.26 29.99 14.31c8.7 4.16 14.24 12.94 14.24 22.58v19.07 3.2c0 6.74-2.72 13.19-7.53 17.9l-7.21 7.04v20.44l10.14 9.82c6.79 6.57 10.63 15.62 10.63 25.08v30.26c0 11.86-9.62 21.48-21.48 21.48h-96.69c-11.86 0-21.48-9.62-21.48-21.48v-30.26c0-9.46 3.84-18.51 10.63-25.08l10.15-9.82v-20.44l-7.21-7.04c-4.82-4.71-7.54-11.16-7.54-17.9z" fill="#f9f7f7"/><path d="m411.434 114.386h-97.32c-7.07 0-12.55 6.19-11.7 13.21l8.16 66.77h.01l16.636 14.93h72.018l16.296-19.649h.01l7.58-62.05c.86-7.021-4.62-13.211-11.69-13.211z" fill="#f8f3f2"/><path d="m398.821 350.282c16.702 0 32.463-7.733 42.684-20.942l22.064-28.514h11.301c5.789 0 10.483-4.693 10.483-10.483v-14.949c0-5.789-4.693-10.483-10.483-10.483h-435.8c-5.789 0-10.483 4.693-10.483 10.483v14.949c0 5.789 4.693 10.483 10.483 10.483h11.301l22.064 28.514c10.221 13.209 25.982 20.942 42.684 20.942z" fill="#ded4cf"/><path d="m144.477 312.026c-16.702 0-32.463-7.732-42.684-20.941l-20.253-26.173h-42.47c-5.789 0-10.483 4.693-10.483 10.483v14.949c0 5.79 4.693 10.482 10.483 10.482h11.301l22.064 28.514c10.221 13.209 25.982 20.942 42.684 20.942h283.701c16.702 0 32.463-7.732 42.684-20.942l13.397-17.313h-310.424z" fill="#cbc0bb"/><g><g id="XMLID_339_"><g><path d="m427.844 358.706c-3.93-7.47-12.88-10.73-20.69-7.54l-81.99 33.46-124.13 6.334v-51.374c-30.86-3.79-62.4 3.12-89.14 20.04l-76.384 48.336c-5.454 3.452-7.357 10.505-4.378 16.231l35.704 68.63c3.141 6.036 10.553 8.423 16.626 5.353l76.432-38.64 64.48 13.72c17.25 3.67 35.24.82 50.51-8.01l146.65-84.74c5.24-3.03 8.19-8.52 8.19-14.19 0-2.58-.6-5.18-1.88-7.61z" fill="#ffe6c6"/><path d="m421.962 352.396-144.087 83.254c-15.27 8.83-33.26 11.68-50.51 8.01l-53.57-11.399c-7.05-1.5-14.402-.483-20.78 2.874l-91.213 48.007 5.037 9.681c3.141 6.036 10.553 8.423 16.626 5.353l76.432-38.64 64.48 13.72c17.25 3.67 35.24.82 50.51-8.01l146.65-84.74c5.24-3.03 8.19-8.52 8.19-14.19 0-2.58-.6-5.18-1.88-7.61-1.414-2.683-3.464-4.817-5.885-6.31z" fill="#f8d3aa"/></g></g><path d="m260.941 237.667h-77.548c-5.899 0-10.682-4.782-10.682-10.682v-12.096c0-9.46 3.84-18.51 10.63-25.08l10.15-9.82v-20.44l-7.21-7.04c-4.82-4.71-7.54-11.16-7.54-17.9v-3.2-19.07c0-9.64 5.55-18.42 14.25-22.58l29.98-14.889-2.378-1.134.63-48.26h-39.76v48.26l-29.98 14.31c-8.7 4.16-14.25 12.94-14.25 22.58v19.07 3.2c0 6.74 2.72 13.19 7.54 17.9l7.21 7.04v20.44l-10.15 9.82c-6.79 6.57-10.63 15.62-10.63 24.565v30.26c0 12.378 9.617 21.995 21.48 21.995h96.69c11.863 0 21.48-9.617 21.48-21.48v-8.206c-2.967 1.549-6.334 2.437-9.912 2.437z" fill="#f2eae7"/><path d="m225.398 52.466h-48.735c-3.849 0-6.97-3.12-6.97-6.97v-31.026c0-3.849 3.12-6.97 6.97-6.97h48.735c3.849 0 6.97 3.12 6.97 6.97v31.026c0 3.849-3.121 6.97-6.97 6.97z" fill="#cfeffc"/><g id="XMLID_341_"><g><path d="m270.854 213.176h-139.65c0-9.46 3.84-18.51 10.63-25.08l10.15-9.82v-20.44l-7.21-7.04c-4.82-4.71-7.54-11.16-7.54-17.9v-3.2h127.59v3.2c0 6.74-2.72 13.19-7.53 17.9l-7.21 7.04v20.44l10.14 9.82c6.79 6.57 10.63 15.62 10.63 25.08z" fill="#cfeffc"/></g></g><path d="m333.895 118.994c-.213-1.609-.027-3.171.482-4.608h-20.262c-7.07 0-12.55 6.19-11.7 13.21l8.16 66.77h.01l16.636 14.93h18.753z" fill="#f2eae7"/><path d="m415.534 189.646-7.93 64.91c-.72 5.91-5.74 10.36-11.69 10.36h-66.28c-5.96 0-10.98-4.45-11.7-10.36l-7.36-60.19h.01l16.1-3.75c13.13-3.06 26.79-3.06 39.93 0 6.55 1.53 13.25 2.29 19.96 2.29 4.18 0 8.36-.29 12.52-.89z" fill="#cfeffc"/><path d="m408.834 244.489-1.23 10.067c-.72 5.91-5.74 10.36-11.69 10.36h-66.28c-5.96 0-10.98-4.45-11.7-10.36l-7.36-60.19h.01l16.1-3.75c5.432-1.266 10.955-2 16.494-2.218l4.854 34.624c1.705 12.163 12.08 21.229 24.362 21.289z" fill="#a9e4f9"/></g><path d="m193.492 179.989v-20.44l-7.21-7.04c-4.82-4.71-7.54-11.16-7.54-17.9v-3.2-1.713h-41.507v3.2c0 6.74 2.72 13.19 7.54 17.9l7.21 7.04v20.44l-10.15 9.82c-6.79 6.57-10.63 15.62-10.63 25.08h41.551c.434-8.833 4.208-17.195 10.587-23.367z" fill="#a9e4f9"/><path d="m325.164 384.626-105.378 5.377c0 9.031 7.322 16.353 16.353 16.353h72.023c8.232 0 16.275-2.692 22.724-7.809 1.797-1.426 3.329-2.912 5.033-4.958l.082-.099c3.85-4.706 6.391-10.351 7.405-16.31z" fill="#f8d3aa"/></g><path d="m308.864 350.276h-65.89c-.86 0-1.72-.14-2.53-.41l-12.97-4.32c-8.67-2.89-17.52-4.87-26.44-5.96l-15.434 8.726-4.315 37.975 7.912 19.18 11.838-13.111h107.83c5.81 0 11.07-2.35 14.88-6.16.5-.5.97-1.03 1.42-1.57 2.97-3.63 4.74-8.26 4.74-13.31-.001-11.62-9.421-21.04-21.041-21.04z" fill="#ffe6c6"/><g><path d="m474.87 257.412h-60.164c.145-.636.265-1.282.345-1.941l15.518-126.968c.67-5.477-1.044-10.987-4.701-15.118-3.657-4.132-8.92-6.502-14.438-6.502h-16.408c-4.143 0-7.5 3.357-7.5 7.5s3.357 7.5 7.5 7.5h16.408c1.678 0 2.729.904 3.206 1.443s1.247 1.692 1.044 3.356l-6.888 56.358-10.766 1.548c-9.935 1.432-19.933.999-29.713-1.279-14.174-3.305-29.158-3.304-43.336.001l-7.966 1.857-7.148-58.485c-.203-1.664.566-2.817 1.044-3.356s1.528-1.443 3.206-1.443h48.947c4.143 0 7.5-3.357 7.5-7.5s-3.357-7.5-7.5-7.5h-48.947c-5.518 0-10.78 2.37-14.438 6.502-3.657 4.131-5.371 9.642-4.701 15.118l15.518 126.968c.081.66.201 1.306.345 1.941h-36.089c2.295-4.148 3.606-8.914 3.606-13.98v-30.259c0-11.42-4.707-22.524-12.913-30.467l-7.861-7.607v-14.103l4.951-4.84c6.223-6.08 9.792-14.558 9.792-23.258v-22.271c0-12.461-7.267-23.98-18.513-29.348l-25.716-12.273v-9.302c6.693-1.268 11.774-7.152 11.774-14.208v-31.026c0-7.979-6.491-14.47-14.47-14.47h-48.734c-7.979 0-14.47 6.491-14.47 14.47v31.026c0 7.057 5.081 12.94 11.774 14.208v9.302l-25.717 12.274c-11.246 5.367-18.512 16.888-18.512 29.348v22.271c0 8.7 3.569 17.178 9.791 23.258l4.953 4.84v14.103l-7.861 7.607c-8.207 7.941-12.913 19.047-12.913 30.467v30.259c0 5.067 1.311 9.832 3.605 13.98h-88.244c-9.916 0-17.982 8.066-17.982 17.982v14.949c0 9.915 8.067 17.982 17.982 17.982h7.622l19.812 25.604c9.013 11.648 22.057 19.611 36.317 22.563l-80.967 51.24c-3.5 2.216-4.542 6.849-2.327 10.349 1.427 2.256 3.859 3.49 6.345 3.49 1.371 0 2.759-.376 4.003-1.163l86.029-54.443c32.693-20.692 72.494-25.541 109.201-13.305l12.964 4.321c1.584.528 3.235.796 4.907.796h65.703c.006 0 .015.001.021.001.083.003.167.004.25.004h.009c7.42.053 13.442 6.101 13.442 13.533 0 7.465-6.073 13.538-13.538 13.538h-55.649c-4.142 0-7.5 3.357-7.5 7.5s3.358 7.5 7.5 7.5h55.649c8.14 0 15.489-3.431 20.693-8.916l80.437-32.83c4.252-1.735 9.07.021 11.21 4.086 2.228 4.234.728 9.427-3.415 11.819l-42.989 24.841c-3.587 2.072-4.814 6.66-2.742 10.246 1.39 2.405 3.91 3.749 6.501 3.749 1.273 0 2.563-.324 3.745-1.007l42.989-24.841c11.142-6.438 15.177-20.401 9.187-31.79-1.202-2.285-2.732-4.281-4.484-5.995 6.672-3.921 12.636-9.074 17.443-15.287l19.812-25.604h7.621c9.916 0 17.983-8.067 17.983-17.982v-14.949c-.001-9.915-8.068-17.982-17.984-17.982zm-149.489-3.762-6.54-53.508 9.542-2.225c11.949-2.784 24.579-2.784 36.526 0 11.601 2.703 23.463 3.215 35.253 1.519l6.745-.97-6.744 55.184c-.263 2.145-2.09 3.762-4.25 3.762h-66.282c-2.161 0-3.988-1.617-4.25-3.762zm-148.187-238.65h47.674v29.966h-47.674zm-22.482 79.817 29.986-14.312c2.608-1.245 4.27-3.878 4.27-6.769v-13.77h24.126v13.771c0 2.891 1.661 5.523 4.27 6.769l29.986 14.312c6.059 2.892 9.974 9.098 9.974 15.811v11.565h-112.585v-11.565c0-6.714 3.914-12.92 9.973-15.812zm-16.005 148.615v-22.759h39.175c4.142 0 7.5-3.357 7.5-7.5s-3.358-7.5-7.5-7.5h-38.109c1.315-4.593 3.809-8.829 7.279-12.188l10.146-9.818c1.46-1.413 2.284-3.357 2.284-5.39v-20.438c0-2.019-.814-3.953-2.258-5.364l-7.211-7.047c-2.31-2.257-3.921-5.134-4.711-8.234h111.458c-.791 3.101-2.401 5.978-4.712 8.235l-7.21 7.047c-1.444 1.411-2.258 3.345-2.258 5.363v20.438c0 2.032.824 3.977 2.284 5.39l10.146 9.818c3.47 3.358 5.964 7.594 7.279 12.188h-52.444c-4.142 0-7.5 3.357-7.5 7.5s3.358 7.5 7.5 7.5h53.51v22.759c0 7.709-6.271 13.98-13.981 13.98h-96.686c-7.709 0-13.981-6.271-13.981-13.98zm195.274 114.35h37.112l-33.699 13.754c0-.074.006-.146.006-.221 0-4.894-1.239-9.503-3.419-13.533zm143.872-67.438c0 1.645-1.338 2.982-2.983 2.982h-11.301c-2.321 0-4.511 1.074-5.932 2.91l-22.064 28.514c-8.736 11.291-22.476 18.032-36.752 18.032l-155.845-.005c-.056 0-.111-.009-.164-.026l-12.964-4.321c-33.805-11.268-69.958-9.55-102.076 4.353h-12.652c-14.276 0-28.015-6.741-36.752-18.032l-22.064-28.514c-1.42-1.836-3.611-2.91-5.932-2.91h-11.302c-1.645 0-2.982-1.338-2.982-2.982v-14.949c0-1.645 1.338-2.982 2.982-2.982h435.8c1.646 0 2.983 1.338 2.983 2.982z"/><path d="m346.963 414.938-75.83 43.817c-13.686 7.909-29.74 10.453-45.201 7.163l-64.477-13.719c-1.673-.354-3.418-.129-4.945.643l-87.389 44.18c-3.697 1.869-5.178 6.381-3.31 10.077 1.32 2.612 3.96 4.118 6.699 4.118 1.138 0 2.293-.26 3.378-.809l85.03-42.987 61.891 13.169c19.098 4.062 38.925.921 55.828-8.848l75.829-43.816c3.587-2.072 4.814-6.66 2.742-10.246-2.072-3.588-6.659-4.813-10.245-2.742z"/></g></g></svg>